<svg width="148" height="150" viewBox="0 0 148 150" fill="none" xmlns="http://www.w3.org/2000/svg">
<path d="M40.2912 37.3363C41.4481 30.4078 36.7694 23.8533 29.8409 22.6963C22.9124 21.5394 16.3579 26.2181 15.2009 33.1466C14.044 40.0751 18.7227 46.6296 25.6512 47.7866C32.5797 48.9435 39.1342 44.2648 40.2912 37.3363Z" fill="#C7C7C7"/>
<path d="M28.3268 47.6563C35.0296 47.6563 40.4633 42.2226 40.4633 35.5198C40.4633 28.817 35.0296 23.3834 28.3268 23.3834C21.6241 23.3834 16.1904 28.817 16.1904 35.5198C16.1904 42.2226 21.6241 47.6563 28.3268 47.6563Z" fill="#A6A6A6"/>
<path d="M28.3269 46.8917C34.6074 46.8917 39.6988 41.8004 39.6988 35.5198C39.6988 29.2393 34.6074 24.1479 28.3269 24.1479C22.0463 24.1479 16.955 29.2393 16.955 35.5198C16.955 41.8004 22.0463 46.8917 28.3269 46.8917Z" fill="white"/>
<path d="M28.434 24.9768H28.2161V26.6988H28.434V24.9768Z" fill="#DBDBDB"/>
<path d="M23.1527 26.3306L22.9609 26.4414L23.8219 27.9327L24.0137 27.8219L23.1527 26.3306Z" fill="#DBDBDB"/>
<path d="M19.2451 30.1539L19.1362 30.3426L20.6275 31.2036L20.7365 31.0149L19.2451 30.1539Z" fill="#DBDBDB"/>
<path d="M19.5023 35.4091H17.7802V35.6306H19.5023V35.4091Z" fill="#DBDBDB"/>
<path d="M20.6334 39.8332L19.1422 40.6945L19.2512 40.8832L20.7424 40.022L20.6334 39.8332Z" fill="#DBDBDB"/>
<path d="M23.8201 43.1097L22.9598 44.6015L23.1517 44.7122L24.012 43.2204L23.8201 43.1097Z" fill="#DBDBDB"/>
<path d="M28.434 44.3408H28.2161V46.0629H28.434V44.3408Z" fill="#DBDBDB"/>
<path d="M32.8309 43.1013L32.6391 43.2121L33.5001 44.7034L33.692 44.5927L32.8309 43.1013Z" fill="#DBDBDB"/>
<path d="M36.0169 39.8324L35.908 40.0211L37.3993 40.8821L37.5083 40.6934L36.0169 39.8324Z" fill="#DBDBDB"/>
<path d="M38.8699 35.4091H37.1478V35.6306H38.8699V35.4091Z" fill="#DBDBDB"/>
<path d="M37.4003 30.1568L35.9089 31.0179L36.0179 31.2066L37.5092 30.3456L37.4003 30.1568Z" fill="#DBDBDB"/>
<path d="M33.5023 26.3363L32.642 27.8281L32.8339 27.9387L33.6942 26.447L33.5023 26.3363Z" fill="#DBDBDB"/>
<path d="M30.0465 31.8969L25.0559 41.7041L25.2501 41.8029L30.2407 31.9957L30.0465 31.8969Z" fill="#DBDBDB"/>
<path d="M27.6994 31.6256L27.4121 31.6831L29.5391 42.3083L29.8264 42.2508L27.6994 31.6256Z" fill="#263238"/>
<path fill-rule="evenodd" clip-rule="evenodd" d="M60.7456 27.3526C60.4669 27.1776 60.2275 26.9239 59.8524 26.9596C59.7095 26.9596 59.7416 26.856 59.7416 26.7774C59.7416 25.3769 59.7416 23.9728 59.7416 22.5723C59.7329 22.5246 59.7397 22.4753 59.7609 22.4316C59.7821 22.3879 59.8166 22.3521 59.8595 22.3294C60.9313 21.7899 61.3922 20.7288 62.0496 19.8285C62.3859 19.3778 62.6279 18.8639 62.7611 18.3176C62.8943 17.7713 62.916 17.2037 62.8249 16.6488C62.782 16.3308 62.9285 16.1915 63.2143 16.1272C63.3566 16.0801 63.51 16.0789 63.653 16.1237C63.796 16.1686 63.9212 16.2573 64.011 16.3773C64.3204 16.9493 64.5283 17.5706 64.6255 18.2136C64.6863 18.746 64.4969 19.264 64.429 19.7892C64.379 20.1751 64.2897 20.5573 64.2182 20.9468C64.3111 21.0146 64.4219 20.9789 64.5219 20.9789H68.0732C68.5734 20.9789 68.8163 21.1218 68.8878 21.4505C68.9254 21.655 68.8951 21.8663 68.8016 22.052C68.7081 22.2378 68.5564 22.3879 68.3697 22.4795C68.284 22.5223 68.1232 22.4795 68.1125 22.6224C68.1018 22.7653 68.2661 22.7474 68.3483 22.8046C68.777 23.1011 68.7055 23.7049 68.2018 24.055C68.0803 24.1408 67.8445 24.1015 67.8445 24.2765C67.8445 24.4516 68.0589 24.4159 68.1554 24.5123C68.5126 24.8696 68.3304 25.4948 67.7981 25.7521C67.7277 25.7745 67.6585 25.8008 67.5909 25.8307C67.5301 25.87 67.473 25.9164 67.5909 25.995C68.1053 26.3523 68.0946 26.8739 67.5909 27.2454L67.4372 27.3562C67.2489 27.4677 67.0296 27.5153 66.812 27.492C64.959 27.492 63.1024 27.492 61.2422 27.492C61.1543 27.5036 61.0649 27.4973 60.9795 27.4733C60.8942 27.4494 60.8146 27.4083 60.7456 27.3526Z" fill="#DBDBDB"/>
<path fill-rule="evenodd" clip-rule="evenodd" d="M55.4758 24.8803C55.4758 23.9907 55.4758 23.094 55.4758 22.2079C55.4758 22.0293 55.4758 21.94 55.7152 21.94C56.8049 21.94 57.8874 21.94 58.9735 21.94C59.1879 21.94 59.22 22.0114 59.22 22.2008C59.22 23.9895 59.22 25.7759 59.22 27.5598C59.22 27.7849 59.1593 27.8528 58.9306 27.8457C57.8767 27.8457 56.8227 27.8457 55.7723 27.8457C55.508 27.8457 55.4722 27.7563 55.4758 27.5277C55.4758 26.6631 55.4758 25.7735 55.4758 24.8803Z" fill="#DBDBDB"/>
<path d="M88.9914 86.9561V136.013H118.645V86.9561H88.9914ZM115.947 117.899H91.6816V105.134H115.947V117.899ZM115.947 102.094H91.6816V89.3283H115.947V102.094Z" fill="#EBEBEB"/>
<path d="M130.492 86.9561H118.638V135.995H130.492V86.9561Z" fill="#DBDBDB"/>
<path d="M97.4515 89.3248H91.6852V102.09H97.4515V89.3248Z" fill="#DBDBDB"/>
<path d="M116.126 133.098H91.6566V120.572H116.126V133.098ZM92.0139 132.74H115.769V120.929H92.0139V132.74Z" fill="#DBDBDB"/>
<path d="M105.272 124.173H100.485V126.595H105.272V124.173Z" fill="#DBDBDB"/>
<path d="M106.869 126.592H101.721V124.176H106.869V126.592ZM102.078 126.234H106.512V124.534H102.078V126.234Z" fill="#DBDBDB"/>
<path d="M97.4515 105.134H91.6852V117.899H97.4515V105.134Z" fill="#DBDBDB"/>
<path d="M13.5001 135.938L29.3772 135.852L45.2507 135.82L77.0049 135.763L108.756 135.82L124.633 135.852L140.51 135.938L124.633 136.027L108.756 136.059L77.0049 136.116L45.2507 136.059L29.3772 136.027L13.5001 135.938Z" fill="#263238"/>
<path d="M53.225 150C81.2299 150 103.932 147.423 103.932 144.244C103.932 141.066 81.2299 138.489 53.225 138.489C25.2201 138.489 2.51758 141.066 2.51758 144.244C2.51758 147.423 25.2201 150 53.225 150Z" fill="#EBEBEB"/>
<path d="M122.4 147.553C136.389 147.553 147.73 146.072 147.73 144.244C147.73 142.417 136.389 140.936 122.4 140.936C108.41 140.936 97.0692 142.417 97.0692 144.244C97.0692 146.072 108.41 147.553 122.4 147.553Z" fill="#EBEBEB"/>
<path d="M14.8899 143.991L73.4822 144.244C87.723 133.058 89.2021 116.488 79.0342 106.445C72.8856 100.372 65.0757 101.597 57.6409 100.629H57.6194C55.0292 100.293 52.489 99.6892 50.0774 98.4173C42.4211 94.3766 38.1053 84.841 31.6637 76.8346C30.8599 75.8306 30.0203 74.8517 29.1414 73.9121C23.8431 68.2565 13.3 68.0707 7.78734 76.0236C-6.21767 96.2236 0.202486 126.295 14.8899 143.991Z" fill="#DBDBDB"/>
<path d="M13.5894 97.7635C15.1257 121.804 42.8856 130.779 60.2311 123.576C75.3079 117.313 70.374 103.023 57.648 100.629H57.6194C55.0292 100.293 52.489 99.6892 50.0774 98.4173C42.4211 94.3766 38.1053 84.841 31.6637 76.8346C22.0746 71.8471 12.464 80.1608 13.5894 97.7635Z" fill="#C7C7C7"/>
<path d="M62.289 142.369C61.478 142.072 43.1536 127.424 42.807 126.424C42.6712 126.045 44.6505 123.251 47.1371 119.943C47.673 119.228 48.2304 118.514 48.802 117.753C52.5069 112.926 56.5476 107.892 56.5476 107.892L68.8342 117.656L60.7527 127.245L58.9664 129.353C58.9664 129.353 63.4751 138.099 63.7359 139.235C63.9967 140.372 63.1 142.665 62.289 142.369Z" fill="#AD6359"/>
<path d="M62.289 142.369C61.478 142.072 43.1536 127.424 42.807 126.424C42.6462 125.963 45.5973 121.933 48.802 117.753L60.7527 127.245L58.9663 129.353C58.9663 129.353 63.4751 138.099 63.7359 139.235C63.9967 140.372 63.1 142.665 62.289 142.369Z" fill="white"/>
<path d="M62.289 142.369C61.478 142.072 43.1536 127.424 42.807 126.424C42.6712 126.045 44.6505 123.251 47.1371 119.943L58.9771 129.353C58.9771 129.353 63.4858 138.099 63.7466 139.235C64.0074 140.372 63.1 142.665 62.289 142.369Z" fill="#FFC727"/>
<path d="M62.6212 141.425C59.6094 138.896 47.2228 128.971 44.0431 126.699C44.0145 126.681 44.0038 126.699 44.0431 126.72C46.9727 129.293 59.4415 139.114 62.5855 141.476C62.6391 141.526 62.6748 141.479 62.6212 141.425Z" fill="#263238"/>
<path d="M63.0964 137.635C62.7619 137.353 62.3726 137.145 61.9532 137.022C61.5337 136.899 61.0933 136.864 60.6598 136.92C59.8776 137.012 59.1616 137.404 58.6627 138.014C58.6627 138.031 58.6805 138.06 58.6984 138.042C59.2896 137.518 60.0346 137.201 60.8218 137.136C61.6089 137.072 62.3958 137.264 63.0642 137.685C63.0709 137.689 63.0789 137.691 63.0866 137.689C63.0943 137.687 63.1011 137.683 63.1053 137.676C63.1096 137.669 63.111 137.661 63.1094 137.654C63.1077 137.646 63.103 137.639 63.0964 137.635Z" fill="#263238"/>
<path d="M59.9274 130.611C58.7091 129.611 56.937 128.907 55.3686 129.3C55.3079 129.318 55.3329 129.403 55.3686 129.414C56.8945 129.709 58.3844 130.167 59.8131 130.779C59.8353 130.794 59.8627 130.8 59.8892 130.795C59.9156 130.79 59.939 130.774 59.9542 130.752C59.9693 130.73 59.975 130.702 59.97 130.676C59.965 130.649 59.9497 130.626 59.9274 130.611Z" fill="#263238"/>
<path d="M60.5776 131.726C59.3629 130.725 57.5908 130.021 56.0224 130.414C55.9617 130.432 55.9867 130.518 56.0224 130.529C57.5524 130.828 59.0459 131.291 60.4776 131.908C60.5017 131.921 60.5302 131.924 60.5567 131.917C60.5831 131.909 60.6054 131.891 60.6187 131.867C60.632 131.843 60.6351 131.814 60.6274 131.788C60.6197 131.761 60.6018 131.739 60.5776 131.726Z" fill="#263238"/>
<path d="M61.2314 132.869C60.0167 131.869 58.2447 131.165 56.6762 131.558C56.6155 131.558 56.6369 131.661 56.6762 131.668C58.2007 131.967 59.6892 132.425 61.1171 133.037C61.1394 133.052 61.1668 133.058 61.1932 133.053C61.2197 133.048 61.2431 133.032 61.2582 133.01C61.2734 132.988 61.2791 132.96 61.2741 132.934C61.269 132.907 61.2537 132.884 61.2314 132.869Z" fill="#263238"/>
<path d="M61.8852 133.998C60.6705 132.997 58.8984 132.294 57.33 132.687C57.2693 132.687 57.2907 132.787 57.33 132.797C58.8548 133.094 60.3436 133.553 61.7709 134.166C61.7932 134.181 61.8205 134.187 61.847 134.182C61.8735 134.177 61.8968 134.161 61.912 134.139C61.9272 134.117 61.9329 134.089 61.9278 134.063C61.9228 134.036 61.9075 134.013 61.8852 133.998Z" fill="#263238"/>
<path d="M47.1585 124.405C45.7759 123.308 44.0682 125.456 45.4508 126.549C46.8334 127.642 48.5448 125.506 47.1585 124.405Z" fill="#263238"/>
<path d="M63.8752 128.392C63.668 127.378 62.4783 127.256 61.6673 127.485C60.2811 127.904 59.0294 128.68 58.0374 129.736C58.0322 129.74 58.028 129.745 58.0252 129.751C58.0223 129.757 58.0208 129.763 58.0208 129.77C58.0208 129.776 58.0223 129.783 58.0252 129.788C58.028 129.794 58.0322 129.799 58.0374 129.803C58.0234 129.83 58.0161 129.86 58.0161 129.891C58.016 129.921 58.0234 129.951 58.0374 129.978C58.0514 130.005 58.0717 130.028 58.0966 130.046C58.1215 130.063 58.1502 130.075 58.1803 130.079C59.538 130.171 60.9813 130.436 62.3282 130.114C63.125 129.939 64.0753 129.35 63.8752 128.392ZM60.2811 129.8C59.6094 129.771 58.9449 129.707 58.2768 129.7C58.9913 129.264 59.6702 128.8 60.4204 128.432C60.7801 128.251 61.1513 128.095 61.5315 127.964C62.1246 127.771 64.1539 127.706 63.2071 129.143C62.6891 129.939 61.0778 129.836 60.2811 129.8Z" fill="#263238"/>
<path d="M54.6183 127.753C55.558 128.771 56.9049 129.35 58.0874 130.025C58.1148 130.038 58.1449 130.045 58.1754 130.044C58.2058 130.043 58.2356 130.035 58.2623 130.021C58.2889 130.006 58.3116 129.985 58.3284 129.96C58.3453 129.934 58.3557 129.905 58.359 129.875C58.384 129.875 58.409 129.875 58.4054 129.829C58.1682 128.399 57.5582 127.057 56.6369 125.938C56.0903 125.295 55.0363 124.737 54.2968 125.463C53.5572 126.188 54.0681 127.156 54.6183 127.753ZM54.4361 126.459C54.4361 124.737 56.0974 125.92 56.4833 126.406C56.727 126.727 56.9478 127.065 57.1442 127.417C57.5658 128.131 57.8802 128.907 58.2161 129.664C57.6551 129.307 57.0692 128.978 56.494 128.632C55.8331 128.217 54.429 127.406 54.4361 126.459Z" fill="#263238"/>
<path d="M81.2457 98.8853C81.2242 100.722 79.3879 104.073 76.8727 107.817C72.0353 115.03 64.6719 123.694 62.8534 125.809L62.439 126.288L49.4272 116.284L49.5772 116.091L61.0349 101.086L26.8513 100.886L39.8309 90.7931C39.8309 90.7931 40.8848 91.4005 43.0713 91.079C50.6169 89.975 67.6265 87.5313 71.6351 87.692C76.8084 87.9135 81.3243 92.9761 81.2457 98.8853Z" fill="#455A64"/>
<path d="M76.8727 107.821C72.0353 115.034 64.6719 123.698 62.8534 125.813L49.5773 116.099L61.0349 101.093L76.8727 107.821Z" fill="#263238"/>
<path d="M65.1507 95.5162C64.725 95.9958 64.33 96.5018 63.9681 97.0311L62.7498 98.6174V98.6352C62.8213 98.478 62.8927 98.3208 62.9677 98.1672C63.2214 97.6384 63.4251 97.0954 63.7287 96.5881C63.7466 96.5559 63.7002 96.5273 63.6823 96.5595C63.3715 97.0597 63.0106 97.5384 62.7462 98.0672C62.6212 98.3137 62.5033 98.5673 62.389 98.821C62.3282 98.9603 62.2639 99.1032 62.2103 99.2426C62.1853 99.3105 62.1567 99.3783 62.1353 99.4498C61.9567 99.6963 61.778 99.9428 61.603 100.196C61.2171 100.754 60.8884 101.343 60.4847 101.901C60.4633 101.929 60.5133 101.958 60.5347 101.929C60.9277 101.408 61.3708 100.922 61.7745 100.404C62.1782 99.8857 62.5712 99.3319 62.9535 98.7888C63.3357 98.2458 63.693 97.717 64.0681 97.1883C64.4764 96.6627 64.8523 96.1127 65.1935 95.5413C65.1969 95.5356 65.1978 95.5288 65.1961 95.5224C65.1944 95.5161 65.1903 95.5106 65.1846 95.5073C65.1789 95.504 65.1722 95.5031 65.1658 95.5048C65.1594 95.5064 65.154 95.5106 65.1507 95.5162Z" fill="#263238"/>
<path d="M31.5386 76.4987C33.9609 79.482 42.7569 88.01 48.2482 89.2605C51.2743 89.95 65.8974 91.9971 67.8981 90.1715C70.2489 88.0279 69.1592 79.9857 67.2907 79.9107C61.5958 79.6856 51.0563 80.8003 48.4232 80.2215C47.23 79.9571 40.9206 75.8842 34.1753 72.6295C31.6458 71.3969 29.9059 74.4695 31.5386 76.4987Z" fill="#AD6359"/>
<path d="M65.0471 79.2069C65.0471 79.2069 65.0149 79.5177 64.9613 80.0464C64.9613 80.1322 64.9613 80.2251 64.9363 80.3215C64.9042 80.6252 64.8684 80.9825 64.8291 81.3755C64.8291 81.4219 64.8291 81.4684 64.8291 81.5148C64.7982 81.8435 64.7625 82.1936 64.722 82.5652C64.722 82.6545 64.7005 82.7474 64.6934 82.8403C64.6577 83.1797 64.6184 83.5334 64.5826 83.8942C64.5826 83.9407 64.5826 83.9871 64.5826 84.0336C64.5433 84.3909 64.5076 84.7481 64.4683 85.1054C64.4683 85.1947 64.4469 85.2876 64.4397 85.3769C64.4004 85.7342 64.3611 86.0915 64.3218 86.4309C64.3218 86.4773 64.3218 86.5237 64.304 86.5702C64.2647 86.9275 64.2254 87.2847 64.1861 87.6241L64.1539 87.8957C64.1253 88.1208 64.1003 88.3423 64.0753 88.5566C64.0574 88.6888 64.0396 88.821 64.0253 88.9496C64.0253 88.9961 64.0253 89.0425 64.0253 89.089C63.9991 89.289 63.9741 89.482 63.9503 89.6677C63.9288 89.8321 63.9074 89.9928 63.8895 90.1429C63.8895 90.2358 63.8609 90.3287 63.8466 90.4144C63.7752 90.9039 63.7145 91.2719 63.6609 91.4862C63.6522 91.5347 63.6365 91.5816 63.6144 91.6256C63.6144 91.6256 63.5966 91.647 63.5894 91.647L63.4072 91.6256L62.8999 91.572L62.6248 91.5434L62.0389 91.4862L61.5744 91.4398H61.4315L60.3811 91.3326L60.106 91.304L59.0557 91.1969H58.9127L57.8624 91.0861L57.5873 91.0575L56.5369 90.9432H56.394L55.3436 90.8289L55.0685 90.7967L54.0181 90.6752H53.8752L52.8249 90.5502L52.5498 90.518L52.3247 90.4895L51.4994 90.3859L51.3565 90.368L50.3061 90.2287H50.2382L50.031 90.2001L48.9806 90.05L48.8377 90.0286C48.459 89.9714 48.1089 89.9142 47.7873 89.8571L47.5123 89.8071C47.0978 89.732 46.7405 89.6606 46.4619 89.5891L46.319 89.5534L46.2439 89.532C45.9513 89.4423 45.6687 89.3226 45.4008 89.1747L45.2686 89.1068L45.14 89.0354L44.9935 88.9532C44.6684 88.7603 44.3183 88.5352 43.9431 88.2744C43.8967 88.2458 43.8502 88.2101 43.8002 88.1743L43.5287 87.9814L43.1535 87.7099L42.7498 87.4062L42.4747 87.1954L41.7959 86.6559L41.6209 86.5166L41.4244 86.3558L41.2815 86.2379L41.0921 86.0843C40.8492 85.8807 40.5991 85.677 40.3525 85.4627C40.3103 85.4302 40.2698 85.3956 40.2311 85.3591L40.031 85.1911L39.956 85.1268C39.5987 84.8267 39.2414 84.523 38.9056 84.2122L38.8199 84.1372L38.7627 84.0872L38.6627 83.9979L37.7123 83.144L37.4908 82.9439L37.4372 82.8939L37.1871 82.6688C36.9156 82.4223 36.6477 82.1722 36.3833 81.9257L36.1832 81.7077L35.9903 81.5291L35.8402 81.3898L35.1257 80.7217L34.8506 80.4609L34.7184 80.3358L34.429 80.0607L33.7966 79.4534L33.6573 79.3176L33.3429 79.0104L33.1964 78.8674L32.6105 78.2744L32.339 78.0029L32.1425 77.8099L31.9138 77.5777L31.8745 77.5348C31.6602 77.3183 31.4631 77.0853 31.285 76.8382C31.235 76.7738 31.1886 76.706 31.1457 76.6381C31.1028 76.5702 31.0778 76.5345 31.0457 76.4845C31.0137 76.4389 30.985 76.3912 30.9599 76.3415C30.7605 76.0115 30.601 75.6589 30.4847 75.2912C30.4524 75.201 30.425 75.1092 30.4026 75.0161C30.3118 74.6737 30.2733 74.3196 30.2882 73.9657C30.2882 73.9157 30.2882 73.8692 30.2882 73.8228C30.319 73.4435 30.4537 73.0801 30.6777 72.7724C30.7555 72.6713 30.8441 72.5791 30.942 72.4973C31.0015 72.4461 31.0648 72.3995 31.1314 72.358C31.1761 72.3277 31.2226 72.3003 31.2707 72.2758C31.5984 72.1128 31.9587 72.0261 32.3247 72.0221H32.6105C32.9089 72.0363 33.2054 72.0769 33.4965 72.1436L33.6644 72.1865C33.7117 72.195 33.7583 72.207 33.8038 72.2222C34.0835 72.2981 34.359 72.3887 34.6291 72.4937L34.8577 72.5866L35.1328 72.7045L35.2686 72.7688C35.4508 72.851 35.6259 72.9439 35.8331 73.0475L36.1903 73.2297L36.3297 73.3047L37.2907 73.8192L37.3836 73.8692L37.5551 73.9621C37.5908 73.979 37.6254 73.9981 37.6587 74.0193C38.016 74.2086 38.3733 74.4016 38.7091 74.5945L38.852 74.6731L39.4594 75.0304L39.9024 75.2805L39.9488 75.3055L40.1775 75.4341L41.2279 76.0307L41.3708 76.1129L41.7959 76.3558L42.046 76.4987L42.4033 76.7131L42.6784 76.8739L43.7288 77.4741L43.8574 77.5491L44.3218 77.8171L44.9077 78.1458L45.1828 78.303L46.2046 78.8674H46.2332L46.3761 78.9425L46.4762 78.9961C46.8334 79.1783 47.1371 79.3533 47.4265 79.4855L47.7016 79.6142C48.0399 79.7815 48.3912 79.9213 48.752 80.0322H48.8056L48.8949 80.0536C48.9444 80.0648 48.9945 80.0732 49.0449 80.0786C49.3445 80.1004 49.645 80.1063 49.9453 80.0965H50.2204C50.5276 80.0965 50.8813 80.0965 51.2707 80.0643H51.4136L51.8388 80.0464L52.464 80.0179H52.7391L53.7895 79.9607H53.9324L54.9828 79.9H55.2579L56.3082 79.8357H56.4512L57.5015 79.7713L57.7766 79.7535L58.827 79.6856H58.9699L60.0203 79.6142L60.2954 79.5963L61.3458 79.5248H61.4887L62.539 79.4534L62.8141 79.4319L63.8645 79.3569H64.0074L65.0471 79.2069Z" fill="#FFC727"/>
<path opacity="0.2" d="M31.2993 72.2758V76.8382C31.2493 76.7738 31.2029 76.706 31.16 76.6381V72.3508C31.2049 72.323 31.2514 72.298 31.2993 72.2758ZM33.6787 72.1901V79.3105L33.8181 79.4462V72.2258C33.7737 72.2107 33.7284 72.1988 33.6823 72.1901H33.6787ZM32.3533 72.0221V78.0029L32.6248 78.2744V72.0221H32.3533ZM34.872 72.5902V80.4502L35.1471 80.711V72.7081L34.872 72.5902ZM36.1975 73.2333V81.7078L36.3368 81.8364V73.3083L36.1975 73.2333ZM38.7163 74.5981V83.9907L38.7734 84.0407L38.8592 84.1157V74.6767L38.7163 74.5981ZM37.5623 73.9657L37.3908 73.8728V82.8474H37.4444L37.6659 83.0475V74.0229C37.6326 74.0017 37.598 73.9826 37.5623 73.9657ZM39.956 75.2912L39.9095 75.2662V85.0304L39.9846 85.0947L40.1846 85.2626V75.4198L39.956 75.2912ZM41.235 76.0057V86.1308L41.3779 86.2487V76.0986L41.235 76.0057ZM43.8824 77.5241L43.7538 77.4491V88.0672C43.8038 88.1029 43.8502 88.1386 43.8967 88.1672V77.5348L43.8824 77.5241ZM42.4283 76.706V87.1061L42.7034 87.3169V76.8596L42.4283 76.706ZM44.9471 78.135V88.9353H45.0935L45.2222 89.0068V78.2887L44.9471 78.135ZM46.2725 78.871V89.4534L46.4154 89.4891V78.9496L46.2725 78.871ZM48.8449 80.05H48.7913V89.925L48.9342 89.9464V80.0536L48.8449 80.05ZM47.4658 79.4891V89.707L47.7409 89.7571V79.6213L47.4658 79.4891ZM49.9667 80.1143V90.1179H50.1739H50.2418V80.1108L49.9667 80.1143ZM51.2922 80.075V90.2822L51.4351 90.3001V80.0715L51.2922 80.075ZM53.7931 79.95V90.5859H53.936V79.9464L53.7931 79.95ZM52.4676 80.0214V90.4287L52.7427 90.4609V80.0107L52.4676 80.0214ZM54.9685 79.8821V90.7217L55.2436 90.7538V79.8714L54.9685 79.8821ZM56.294 79.8035V90.8789H56.4369V79.8035H56.294ZM58.8127 79.6427V91.1397H58.9556V79.6356L58.8127 79.6427ZM57.4873 79.7285V90.9968L57.7623 91.0254V79.7142L57.4873 79.7285ZM60.006 79.5606V91.2576L60.2811 91.2862V79.5641L60.006 79.5606ZM61.3315 79.4712V91.3933H61.4744V79.4641L61.3315 79.4712ZM63.8502 79.2926V89.6534C63.8741 89.4677 63.8991 89.2747 63.9253 89.0747C63.9253 89.0282 63.9253 88.9818 63.9253 88.9353C63.9253 88.8067 63.9574 88.6745 63.9753 88.5423V79.2855L63.8502 79.2926ZM62.5248 79.3891V91.5113L62.7999 91.5398V79.3712L62.5248 79.3891ZM61.9388 91.4541L62.5248 91.5113L62.7999 91.5398L63.3072 91.5934H63.5144C63.5365 91.5495 63.5522 91.5025 63.5608 91.4541H61.9388ZM50.1489 90.1286H50.2168L51.2672 90.2679L51.4101 90.2858L52.2354 90.3894H63.8002C63.8002 90.3037 63.8252 90.2108 63.8431 90.1179L50.1489 90.1286ZM45.0507 88.9353L45.1793 89.0068L45.3115 89.0747H63.9789C63.9789 89.0282 63.9789 88.9818 63.9789 88.9353H45.0507ZM41.5316 86.4166L41.7066 86.5559H64.2147C64.2147 86.5095 64.2147 86.463 64.2325 86.4166H41.5316ZM43.0642 87.6099L43.4394 87.8814H64.0825L64.1146 87.6099H43.0642ZM39.9417 85.109L40.1418 85.2769C40.1805 85.3135 40.221 85.348 40.2632 85.3805H64.4076C64.4076 85.2912 64.4254 85.1983 64.4362 85.109H39.9417ZM38.5734 83.9157L38.6734 84.005L38.7306 84.055H64.5112C64.5112 84.0086 64.5112 83.9621 64.5112 83.9157H38.5734ZM35.8117 81.3969L35.9617 81.5363H64.772C64.772 81.4898 64.772 81.4434 64.772 81.3969H35.8117ZM37.0978 82.5866L37.3479 82.8117V82.8617H64.6362C64.6362 82.7688 64.6541 82.676 64.6648 82.5866H37.0978ZM51.8352 80.0679L51.4101 80.0857H51.2672C50.8777 80.0857 50.524 80.1143 50.2168 80.1179H49.9417C49.6415 80.1278 49.341 80.1218 49.0414 80.1C48.9909 80.0946 48.9408 80.0863 48.8913 80.075V80.0536H34.4504L34.7398 80.3287H64.9363C64.9363 80.2322 64.9542 80.1393 64.9613 80.0536L51.8352 80.0679ZM46.3726 78.9639L46.2297 78.8889H33.2179L33.3644 79.0318H46.5155L46.3726 78.9639ZM41.8031 76.3487H30.9742C30.9993 76.3983 31.028 76.4461 31.06 76.4916H42.0532L41.8031 76.3487ZM43.8967 77.5491H31.896L31.9353 77.592L32.1639 77.8242H44.3683L43.8967 77.5491ZM39.9095 75.2769L39.4665 75.0268H30.4169C30.4393 75.1199 30.4667 75.2117 30.499 75.3019H39.956L39.9095 75.2769ZM37.3908 73.8835L37.2979 73.8335H30.3168C30.3168 73.88 30.3168 73.9264 30.3168 73.9764H37.5766L37.3908 73.8835ZM35.1471 72.7188L34.872 72.6009L34.6434 72.508H30.9706C30.8727 72.5898 30.7841 72.6821 30.7063 72.7831H35.2829L35.1471 72.7188Z" fill="white"/>
<path d="M41.0456 85.995C37.6408 83.1797 33.7395 79.4141 31.9281 77.5848C29.4272 75.0661 29.688 71.2933 33.5108 72.1508C34.5505 73.8728 39.0842 82.3258 41.0456 85.995Z" fill="#263238"/>
<path d="M62.6927 80.3072C62.6927 80.2751 62.6462 80.2644 62.6391 80.3072C62.4747 81.1361 62.4069 81.9864 62.314 82.826C62.2211 83.6656 62.1318 84.5588 62.0532 85.4305C61.8995 87.1597 61.7173 88.9032 61.6602 90.6431C61.6633 90.6554 61.6705 90.6663 61.6805 90.6741C61.6905 90.6818 61.7028 90.6861 61.7155 90.6861C61.7282 90.6861 61.7406 90.6818 61.7506 90.6741C61.7606 90.6663 61.7678 90.6554 61.7709 90.6431C62.0317 88.9353 62.1711 87.199 62.3318 85.4805C62.4104 84.6302 62.489 83.7763 62.5498 82.9225C62.6105 82.0686 62.7034 81.1754 62.6927 80.3072Z" fill="#263238"/>
<path d="M41.946 98.7281C41.7685 98.821 41.5763 98.8827 41.3779 98.9103L41.235 98.9389L40.8777 99.0139L40.1989 99.1354L40.0881 99.1533L39.9238 99.1783L38.8734 99.3462L38.7305 99.3641C38.3983 99.4177 38.0481 99.4677 37.6801 99.5213L37.405 99.5606L36.3547 99.707L36.2118 99.7249L35.1614 99.8678L34.8863 99.9035L33.8359 100.039L33.693 100.057L33.2679 100.111L32.6426 100.193H32.5212C32.4711 100.193 32.4176 100.193 32.3675 100.214L31.3172 100.343L31.1742 100.361L30.2846 100.468L30.1239 100.486L29.8488 100.522L28.7984 100.65L28.6555 100.668L27.6051 100.79L27.33 100.822L26.2796 100.943L26.1367 100.961L25.0864 101.083C24.9935 101.083 24.9006 101.1 24.8113 101.115L23.7609 101.229L23.618 101.247H23.4393L22.5676 101.34L22.2925 101.372L21.2421 101.479L21.0992 101.497H21.0492C20.6598 101.536 20.3347 101.568 20.0488 101.59L19.7737 101.615L19.4736 101.636C19.3929 101.645 19.3114 101.645 19.2307 101.636C19.2105 101.593 19.2031 101.545 19.2093 101.497C19.2093 101.311 19.2093 100.95 19.2593 100.447C19.2593 100.361 19.2593 100.268 19.2807 100.171C19.3093 99.8607 19.345 99.5105 19.3879 99.1175C19.3879 99.0711 19.3879 99.0247 19.3879 98.9782C19.4236 98.6495 19.4629 98.2994 19.5058 97.9243L19.5379 97.6527C19.5772 97.3169 19.6201 96.9632 19.6666 96.5809C19.6666 96.5345 19.6666 96.488 19.6666 96.4416C19.6928 96.2558 19.7178 96.0665 19.7416 95.8735L19.8059 95.3876C19.8059 95.2983 19.8309 95.209 19.8416 95.1161C19.8881 94.7588 19.9381 94.423 19.9881 94.0622L20.0095 93.9228C20.008 93.9026 20.008 93.8823 20.0095 93.8621C20.056 93.537 20.1024 93.2047 20.1525 92.8689C20.1525 92.7796 20.1775 92.6903 20.1918 92.5974C20.2453 92.2401 20.2989 91.9007 20.3525 91.5434L20.374 91.4041C20.4276 91.0468 20.4811 90.6895 20.5383 90.3323C20.5383 90.243 20.5705 90.1536 20.5847 90.0607C20.6383 89.7035 20.6991 89.3462 20.7562 89.0068C20.7562 88.9603 20.7562 88.9139 20.7777 88.8675C20.8384 88.5102 20.8991 88.1529 20.9635 87.8135C20.9635 87.7242 20.992 87.6313 21.0099 87.542C21.0278 87.4527 21.0421 87.3491 21.0599 87.2562L21.1993 86.488C21.1993 86.488 21.1993 86.4702 21.1993 86.463L21.2207 86.3487C21.285 85.9914 21.3529 85.6342 21.4208 85.2948C21.4208 85.2054 21.4529 85.1125 21.4744 85.0232C21.5387 84.666 21.6101 84.3087 21.678 83.9514L21.7102 83.8121C21.7816 83.4548 21.8531 83.0975 21.9281 82.7581C21.9495 82.6652 21.9674 82.5759 21.9853 82.483C22.0639 82.1258 22.1425 81.7685 22.2246 81.4327C22.2246 81.3934 22.2246 81.3576 22.2496 81.3183C22.2746 81.279 22.2496 81.3005 22.2496 81.2933C22.3318 80.936 22.4175 80.5788 22.4997 80.2394L22.5212 80.1572C22.5212 80.0929 22.5533 80.0286 22.5712 79.9643C22.6605 79.607 22.7498 79.2497 22.8427 78.9139C22.8427 78.8675 22.8677 78.8174 22.882 78.771C22.9785 78.4137 23.0785 78.0564 23.1785 77.7206L23.2643 77.4455C23.3643 77.1133 23.4679 76.7953 23.5715 76.4952C23.5715 76.463 23.593 76.4273 23.6073 76.3951C23.6216 76.363 23.6394 76.2987 23.6573 76.2522C23.6751 76.2058 23.693 76.1451 23.7144 76.095C23.7752 75.92 23.8395 75.7378 23.9038 75.5913C23.9681 75.4448 24.0074 75.3269 24.061 75.2019C24.1146 75.0768 24.1432 75.0161 24.1825 74.9268C24.3429 74.5604 24.5354 74.2089 24.7577 73.8764C24.7577 73.8764 24.822 73.7835 24.8541 73.7442C24.9101 73.671 24.9697 73.6006 25.0328 73.5334L25.1328 73.4334L25.3222 73.2619C25.5651 73.0475 25.7902 72.8582 26.001 72.6938C26.0266 72.6702 26.0541 72.6487 26.0831 72.6295L26.2261 72.5188L26.3618 72.4187C26.6905 72.1758 26.9906 71.9793 27.2764 71.8006L27.6087 71.7042L27.6659 71.6685C27.8189 71.5765 27.9819 71.5022 28.1517 71.4469C28.3181 71.3919 28.4875 71.3466 28.6591 71.3112H28.6984L28.802 71.2897C29.1495 71.2272 29.5001 71.1831 29.8523 71.1576H30.1274C30.4847 71.1576 30.842 71.1325 31.1778 71.1576H31.3207C31.7102 71.1576 32.071 71.1897 32.3711 71.2219L32.6462 71.254C32.8114 71.2712 32.975 71.3011 33.1357 71.3433L33.1964 71.3648C33.2663 71.3957 33.3313 71.4366 33.3893 71.4862C33.499 71.5773 33.6017 71.6764 33.6966 71.7828L33.8395 71.9436C33.9788 72.1115 34.136 72.3008 34.2932 72.5366C34.3575 72.6259 34.4218 72.7153 34.4861 72.8117C34.6183 73.0082 34.7541 73.2226 34.8899 73.4477C34.972 73.5799 35.0578 73.7192 35.1364 73.8621L35.165 73.9085L35.2185 74.005C35.4079 74.3408 35.5758 74.6945 35.7616 75.0554C35.808 75.1447 35.8509 75.2376 35.8938 75.3305C36.0081 75.5806 36.1153 75.8342 36.2153 76.0915C36.2546 76.1879 36.2904 76.2844 36.3261 76.3808L36.3582 76.4666L36.3797 76.5238C36.499 76.8566 36.6016 77.1953 36.6869 77.5384C36.6889 77.5502 36.6889 77.5623 36.6869 77.5741C36.7084 77.6527 36.7298 77.7456 36.7584 77.8492C36.8263 78.1243 36.9156 78.478 37.0263 78.8996C37.0263 78.9461 37.0513 78.9925 37.0656 79.0425C37.1478 79.3605 37.2371 79.7106 37.3407 80.0929C37.3407 80.1715 37.38 80.2537 37.4015 80.3358C37.4031 80.3465 37.4031 80.3573 37.4015 80.368C37.4872 80.6848 37.5765 81.0206 37.6694 81.3755V81.4219C37.6694 81.4684 37.6944 81.5148 37.7051 81.5613L37.9838 82.6116C38.0053 82.701 38.0303 82.7939 38.0553 82.8867C38.1446 83.244 38.2375 83.5799 38.3304 83.9407C38.3304 83.9871 38.3554 84.0336 38.3697 84.08C38.459 84.4373 38.5519 84.7946 38.6448 85.1518L38.7091 85.3984C38.7095 85.4067 38.7095 85.415 38.7091 85.4234C38.7555 85.5913 38.7984 85.7628 38.8448 85.9343L38.9842 86.4773C38.9842 86.5238 39.0092 86.5702 39.0235 86.6166C39.1128 86.9739 39.2057 87.3312 39.295 87.6706C39.32 87.7599 39.345 87.8492 39.3665 87.9421C39.4594 88.2994 39.5522 88.6567 39.6416 88.9961C39.6416 89.0425 39.6666 89.089 39.6773 89.1354C39.7487 89.4141 39.8238 89.6928 39.8952 89.9714L39.9488 90.1894C39.9738 90.2787 39.9953 90.3716 40.0203 90.4609L40.1703 91.0432C40.2096 91.204 40.2489 91.3612 40.2918 91.5148C40.2918 91.5613 40.3132 91.6077 40.3275 91.6542L40.5919 92.7081C40.6169 92.801 40.6383 92.8903 40.6633 92.9796C40.7527 93.3369 40.842 93.6942 40.9242 94.0336C40.9242 94.08 40.9492 94.1265 40.9599 94.1729L41.2171 95.2269L41.2814 95.4912C41.3064 95.6091 41.335 95.7235 41.36 95.8485C41.4208 96.095 41.4779 96.3344 41.5279 96.5631L41.5601 96.7024C41.653 97.1061 41.728 97.4598 41.7888 97.7742C41.8102 97.8707 41.8281 97.9636 41.8423 98.0457C41.9135 98.2661 41.9485 98.4966 41.946 98.7281Z" fill="#FFC727"/>
<path opacity="0.2" d="M21.2278 86.5345V101.511L21.0849 101.529V87.3276L21.2243 86.5595C21.2243 86.5595 21.2278 86.5416 21.2278 86.5345ZM20.0274 93.9764L20.006 94.1158C19.956 94.473 19.9059 94.8303 19.8595 95.1697C19.8595 95.2626 19.8345 95.3519 19.8238 95.4412L19.7487 95.9271V101.643L20.0238 101.618V93.9157C20.0235 93.936 20.0247 93.9563 20.0274 93.9764ZM22.5283 80.3287C22.4461 80.686 22.3604 81.0254 22.2782 81.3826V101.39L22.5533 101.358V80.2465L22.5283 80.3287ZM23.6787 76.3487C23.6787 76.3951 23.643 76.4416 23.6287 76.4916C23.6144 76.5416 23.6037 76.5595 23.593 76.5916V101.268L23.7359 101.25V76.1843C23.7252 76.2344 23.7073 76.288 23.6787 76.3487ZM26.1117 72.7153V100.982L26.2546 100.965V72.5974L26.1117 72.7153ZM24.8827 73.8299C24.8506 73.8692 24.8184 73.9157 24.7863 73.9621V101.136C24.8756 101.136 24.9685 101.115 25.0614 101.104V73.612C25.002 73.6795 24.9459 73.7498 24.8934 73.8228L24.8827 73.8299ZM27.305 71.8864V100.843L27.5801 100.811V71.7042L27.305 71.8864ZM28.6698 71.3112H28.6305V100.69L28.7734 100.672V71.2826L28.6698 71.3112ZM31.1492 71.1254V100.382L31.2922 100.364V71.1183L31.1492 71.1254ZM29.8238 71.1576V100.536L30.0989 100.5V71.1361L29.8238 71.1576ZM32.3247 71.1897V100.236C32.3747 100.236 32.4283 100.236 32.4783 100.214H32.5998V71.2147L32.3247 71.1897ZM33.6501 71.7506V100.064L33.793 100.046V71.9042L33.6501 71.7506ZM36.3082 76.3487C36.2725 76.2522 36.2368 76.1558 36.1975 76.0593V99.732L36.3404 99.7142V76.3487H36.3082ZM35.1185 73.8478C35.0399 73.7049 34.9542 73.5656 34.872 73.4334V99.9285L35.1471 99.8928V73.8692L35.1185 73.8478ZM37.3979 80.3537C37.3996 80.343 37.3996 80.3322 37.3979 80.3215V99.5713L37.673 99.532V81.3505C37.5754 80.9884 37.4837 80.6479 37.3979 80.3287V80.3537ZM38.7234 85.3912C38.7238 85.3829 38.7238 85.3745 38.7234 85.3662V99.3891L38.8663 99.3712V85.9021C38.8127 85.7056 38.7698 85.5341 38.7234 85.3662V85.3912ZM41.2993 95.4662L41.235 95.2018V98.9639L41.3779 98.9353V95.8128C41.3529 95.6735 41.3243 95.5591 41.2993 95.4412V95.4662ZM40.0346 90.4287C40.0096 90.3394 39.9881 90.2465 39.9631 90.1572L39.9095 89.9393V99.1783L40.0739 99.1533L40.1846 99.1354V90.9968L40.0346 90.4287ZM19.195 101.533C19.1888 101.58 19.1962 101.629 19.2164 101.672H19.7487V101.651L20.0238 101.626C20.2989 101.604 20.6348 101.572 21.0242 101.533H19.195ZM19.2664 100.207C19.2664 100.304 19.2664 100.397 19.245 100.482H30.2704L31.16 100.375L31.3029 100.357L32.3532 100.229C32.4033 100.229 32.4569 100.229 32.5069 100.207H19.2664ZM19.3879 99.0139C19.3879 99.0604 19.3879 99.1068 19.3879 99.1533H40.0882L40.1989 99.1354L40.8777 99.0139H19.3879ZM41.5387 96.4952H19.6844C19.6844 96.5416 19.6844 96.5881 19.6844 96.6345H41.578L41.5387 96.4952ZM41.7995 97.6885H19.538L19.5058 97.96H41.8602C41.8459 97.8778 41.8281 97.7849 41.8066 97.6885H41.7995ZM41.2278 95.1876H19.8595C19.8595 95.2805 19.8345 95.3698 19.8238 95.4591H41.2993L41.2278 95.1876ZM40.9313 93.9871H20.0274L20.006 94.1265H40.9742C40.9635 94.0693 40.9492 94.0229 40.9385 93.9764L40.9313 93.9871ZM40.2989 91.4862H20.399L20.3775 91.6256H40.3418C40.3275 91.5506 40.3168 91.5041 40.3061 91.4577L40.2989 91.4862ZM40.5991 92.6795H20.2168C20.2168 92.7724 20.1918 92.8617 20.1775 92.951H40.6777C40.6526 92.8331 40.6312 92.7438 40.6062 92.6509L40.5991 92.6795ZM39.956 90.1608H20.6098C20.6098 90.2537 20.5776 90.343 20.5633 90.4323H40.0346C40.0096 90.3144 39.9881 90.2215 39.9631 90.1322L39.956 90.1608ZM39.6487 88.9675H20.8206C20.8206 89.0139 20.8206 89.0604 20.7991 89.1068H39.7094C39.6809 89.0318 39.6666 88.9853 39.6559 88.9389L39.6487 88.9675ZM38.9913 86.4487H21.2493L21.2278 86.5631C21.2278 86.5631 21.2278 86.5809 21.2278 86.5881H39.0414C39.0414 86.513 39.0128 86.4666 38.9985 86.4201L38.9913 86.4487ZM39.3022 87.642H21.0349C21.0349 87.7313 21.0028 87.8242 20.9885 87.9135H39.3986C39.3593 87.7813 39.3343 87.7027 39.3093 87.6134L39.3022 87.642ZM38.7091 85.3698L38.6448 85.1233H21.4958C21.4744 85.2126 21.4565 85.3055 21.4422 85.3948H38.7162C38.7183 85.377 38.7183 85.359 38.7162 85.3412L38.7091 85.3698ZM38.3304 83.9407H21.7387L21.7066 84.08H38.3768C38.3625 83.9943 38.3518 83.9478 38.3268 83.9014L38.3304 83.9407ZM37.6694 81.4219H22.2711V81.4469C22.2711 81.4862 22.2711 81.522 22.2461 81.5613H37.7052C37.7016 81.4755 37.6873 81.4291 37.6766 81.3826L37.6694 81.4219ZM37.9838 82.6116H22.0138C22.0138 82.7045 21.9781 82.7938 21.9567 82.8867H38.0624C38.0374 82.7545 38.0124 82.6617 37.991 82.5723L37.9838 82.6116ZM37.3836 80.3358C37.3622 80.2537 37.3407 80.1715 37.3229 80.0929H22.6069C22.6069 80.1572 22.5712 80.2215 22.5569 80.2858L22.5355 80.368H37.3979C37.4041 80.3441 37.4016 80.3187 37.3908 80.2965L37.3836 80.3358ZM37.0263 78.9067H22.9142C22.9142 78.9532 22.8856 79.0032 22.8749 79.0497H37.0549C37.0406 78.9532 37.0263 78.9067 37.0156 78.8496L37.0263 78.9067ZM36.3511 76.4737V76.3487H23.6787C23.6787 76.3951 23.643 76.4416 23.6287 76.4916H36.3618L36.3511 76.4737ZM36.6869 77.5813H23.2964L23.2107 77.8564H36.7477C36.7191 77.7063 36.6977 77.6134 36.6762 77.5348L36.6869 77.5813ZM35.7545 75.0804H24.2146C24.1753 75.1697 24.1325 75.259 24.0932 75.3555H35.8831C35.8259 75.1983 35.7902 75.1054 35.7437 75.0161L35.7545 75.0804ZM35.1578 73.9335L35.1292 73.8871H24.8934C24.8613 73.9264 24.8291 73.9728 24.797 74.0193H35.2078L35.1578 73.9335ZM33.1893 71.3898L33.1285 71.3683H28.6412C28.4696 71.4038 28.3002 71.4491 28.1339 71.5041H33.3715C33.3176 71.4342 33.2524 71.3738 33.1785 71.3255L33.1893 71.3898ZM34.2861 72.5616H26.4261L26.2904 72.6617L26.1475 72.7724C26.1184 72.7916 26.0909 72.8131 26.0653 72.8367H34.4683C34.3968 72.676 34.3397 72.5866 34.2754 72.4973L34.2861 72.5616Z" fill="white"/>
<path d="M33.2536 100.111C29.8845 100.543 26.1796 100.979 23.425 101.279L23.9359 75.6806C24.3361 74.6517 24.7541 73.8942 25.1721 73.512L25.3615 73.3405L33.2536 100.111Z" fill="#263238"/>
<path d="M37.8981 96.5452C37.7266 95.7521 37.5539 94.9589 37.38 94.1658C37.0299 92.5795 36.6726 90.9944 36.3082 89.4105C35.5722 86.2165 34.7922 83.0332 33.9681 79.8607C33.5108 78.0743 33.0213 76.3094 32.5712 74.5266C32.5691 74.5211 32.5655 74.5164 32.5607 74.5131C32.5559 74.5098 32.5502 74.508 32.5444 74.508C32.5385 74.508 32.5328 74.5098 32.5281 74.5131C32.5233 74.5164 32.5196 74.5211 32.5176 74.5266C33.3429 77.6849 34.061 80.8717 34.8005 84.0514C35.5401 87.2312 36.2653 90.3823 36.9727 93.5548L37.5622 96.2237C37.7587 97.124 37.9195 98.0529 38.1767 98.9318C38.2053 99.0318 38.3804 99.0104 38.3661 98.9032C38.2732 98.1422 38.066 97.3312 37.8981 96.5452Z" fill="#263238"/>
<path d="M32.5533 75.3448C31.2314 75.527 29.195 73.3369 28.4697 71.6506C28.4197 71.5363 28.6984 70.393 28.9735 68.9889C29.1343 68.135 29.295 67.1811 29.3808 66.3023C29.3808 66.12 29.981 66.5095 29.981 66.5095L31.0921 66.8953L34.7756 68.1672C34.3559 69.2381 34.0691 70.3563 33.9217 71.497C33.9097 71.6158 33.9097 71.7354 33.9217 71.8542V71.915C33.9717 72.6224 33.8324 75.1661 32.5533 75.3448Z" fill="#AD6359"/>
<path d="M33.9252 71.8649V71.9257C33.7355 71.9328 33.5455 71.9244 33.3572 71.9007C29.6451 71.4648 29.6273 66.7024 29.6273 66.7024L31.0921 66.906L34.7755 68.1779C34.3559 69.2488 34.0691 70.367 33.9216 71.5077C33.9109 71.6266 33.9121 71.7463 33.9252 71.8649Z" fill="#263238"/>
<path d="M30.0524 59.2926C29.0628 61.079 28.9163 66.8703 30.0238 68.3959C31.6351 70.6109 34.847 71.4612 36.8763 69.3962C38.8413 67.3919 38.8984 59.8607 37.5908 58.4137C35.7009 56.2808 31.5172 56.6274 30.0524 59.2926Z" fill="#AD6359"/>
<path d="M34.8434 64.08C34.8434 64.08 34.8113 64.0979 34.8113 64.1122C34.8113 64.5016 34.747 64.9482 34.3897 65.0661C34.3897 65.0661 34.3897 65.0911 34.3897 65.0875C34.8256 65.0411 34.9042 64.448 34.8434 64.08Z" fill="#263238"/>
<path d="M34.5076 63.662C33.8824 63.5977 33.7931 64.8482 34.3754 64.9125C34.9578 64.9768 35.0292 63.7192 34.5076 63.662Z" fill="#263238"/>
<path d="M37.0835 64.298C37.0835 64.298 37.1156 64.3194 37.1121 64.3373C37.0728 64.7231 37.1121 65.1733 37.4372 65.3269C37.4372 65.3269 37.4372 65.3519 37.4372 65.3483C37.0049 65.2733 36.987 64.6588 37.0835 64.298Z" fill="#263238"/>
<path d="M37.4586 63.9193C38.0874 63.9193 38.0481 65.1697 37.4586 65.1733C36.8691 65.1768 36.9334 63.9228 37.4586 63.9193Z" fill="#263238"/>
<path d="M34.0396 63.0547C34.2074 63.0182 34.3732 62.9729 34.5362 62.9189C34.7175 62.8955 34.8859 62.8125 35.0149 62.6831C35.0481 62.6345 35.0643 62.5763 35.061 62.5175C35.0578 62.4588 35.0353 62.4027 34.9971 62.358C34.9075 62.2823 34.7994 62.2319 34.6839 62.2118C34.5683 62.1917 34.4496 62.2027 34.3397 62.2437C34.104 62.2924 33.895 62.4274 33.7538 62.6224C33.7236 62.6685 33.7076 62.7224 33.7078 62.7775C33.7079 62.8326 33.7242 62.8865 33.7546 62.9325C33.785 62.9784 33.8281 63.0145 33.8788 63.0362C33.9294 63.0579 33.9853 63.0643 34.0396 63.0547Z" fill="#263238"/>
<path d="M37.9874 63.3226C37.8159 63.2797 37.6659 63.2154 37.4979 63.1583C37.3184 63.1233 37.1552 63.0305 37.0335 62.8939C37.003 62.8439 36.99 62.7852 36.9964 62.727C37.0029 62.6688 37.0285 62.6144 37.0692 62.5724C37.1633 62.502 37.2743 62.4577 37.3909 62.4439C37.5076 62.4301 37.6258 62.4473 37.7337 62.4938C37.966 62.5567 38.167 62.7029 38.2982 62.9046C38.3249 62.9527 38.3372 63.0074 38.3335 63.0623C38.3299 63.1172 38.3105 63.1698 38.2777 63.2139C38.2449 63.258 38.2001 63.2918 38.1486 63.311C38.0971 63.3303 38.0411 63.3343 37.9874 63.3226Z" fill="#263238"/>
<path d="M34.722 66.5238C34.8095 66.6842 34.9293 66.8247 35.0738 66.9366C35.2183 67.0485 35.3843 67.1293 35.5616 67.174C35.7165 67.2151 35.8766 67.2331 36.0367 67.2276C36.0676 67.2312 36.0988 67.2312 36.1296 67.2276H36.2154C36.2361 67.2247 36.2554 67.2151 36.2702 67.2003C36.285 67.1854 36.2946 67.1662 36.2975 67.1454C36.2993 67.1324 36.2993 67.1192 36.2975 67.1061V67.0597C36.3261 66.7596 36.3261 66.3058 36.3261 66.3058C36.4333 66.3666 36.9728 66.6631 36.9728 66.4987C37.0327 65.1486 36.9548 63.7959 36.7405 62.4616C36.7405 62.4521 36.7368 62.443 36.7301 62.4363C36.7234 62.4296 36.7143 62.4259 36.7048 62.4259C36.6953 62.4259 36.6863 62.4296 36.6796 62.4363C36.6729 62.443 36.6691 62.4521 36.6691 62.4616C36.6048 63.7085 36.7656 64.9625 36.7227 66.2129C36.5312 66.106 36.3255 66.0266 36.1118 65.9771C36.0689 65.9771 36.1118 66.8596 36.1118 66.9954C35.8655 67.0023 35.6203 66.9597 35.3907 66.8701C35.1612 66.7805 34.952 66.6457 34.7756 66.4737C34.7327 66.4666 34.7005 66.4916 34.722 66.5238Z" fill="#263238"/>
<path d="M37.8695 60.368C35.8795 61.5005 33.4715 59.3355 33.4715 59.3355C33.2769 59.7325 32.9593 60.0561 32.566 60.2582C32.1727 60.4603 31.7247 60.5302 31.2886 60.4573C31.2886 60.4573 30.6527 63.6084 29.8131 63.5334C28.534 63.4191 28.5019 59.0425 28.9771 58.2244C29.4522 57.4062 30.5562 57.2776 30.5562 57.2776C30.719 56.771 31.0675 56.3447 31.5315 56.0843C32.4604 55.4877 35.3972 56.6417 35.3972 56.6417C35.6039 56.2526 35.8988 55.9174 36.2582 55.6627C36.3447 55.5994 36.443 55.5542 36.5474 55.53C36.6518 55.5057 36.76 55.5028 36.8655 55.5215C36.971 55.5402 37.0716 55.5801 37.1613 55.6387C37.2509 55.6974 37.3278 55.7736 37.3872 55.8628C37.2121 56.0862 37.0899 56.3464 37.0299 56.6238C36.8013 57.542 37.5623 57.6027 37.6266 56.7596C37.66 56.4434 37.5803 56.1257 37.4015 55.8628C37.8231 55.3412 38.4519 55.2126 38.7984 55.5413C39.4165 56.1343 39.5237 59.4284 37.8695 60.368Z" fill="#263238"/>
<path d="M30.2918 64.0729C30.2918 64.0729 29.3701 62.0293 28.4662 62.3258C27.5623 62.6224 28.0196 65.4162 28.9127 65.9557C29.0228 66.0328 29.1473 66.0868 29.2788 66.1146C29.4102 66.1423 29.5459 66.1432 29.6778 66.1172C29.8096 66.0912 29.9348 66.0388 30.0458 65.9631C30.1569 65.8875 30.2515 65.7902 30.324 65.677L30.2918 64.0729Z" fill="#AD6359"/>
<path d="M28.6162 63.1297C28.6162 63.1297 28.5948 63.1476 28.6162 63.1547C29.2414 63.5548 29.4772 64.2479 29.6059 64.9411C29.5794 64.8659 29.5369 64.7974 29.4813 64.7403C29.4257 64.6831 29.3584 64.6388 29.284 64.6102C29.2096 64.5817 29.1299 64.5697 29.0503 64.575C28.9708 64.5803 28.8934 64.6028 28.8234 64.6409C28.8056 64.6409 28.8234 64.6802 28.8234 64.6802C28.9496 64.6647 29.0775 64.6886 29.1894 64.7488C29.3014 64.8089 29.392 64.9023 29.4487 65.0161C29.5402 65.2059 29.612 65.4047 29.663 65.6091C29.6845 65.677 29.7988 65.6663 29.7881 65.5913C29.9667 64.7124 29.5237 63.3834 28.6162 63.1297Z" fill="#263238"/>
<path d="M33.9253 71.9257L32.7248 74.9196L28.5769 70.9325L27.473 72.2794C27.473 72.2794 31.603 78.6888 31.6209 78.3959L32.8749 75.5591L34.8613 77.4491L34.5648 72.5688L33.9253 71.9257Z" fill="#FFC727"/>
<path d="M34.8506 75.0232C34.7755 74.2194 34.722 73.4048 34.6076 72.6045C34.6056 72.599 34.6019 72.5943 34.5972 72.591C34.5924 72.5877 34.5867 72.5859 34.5808 72.5859C34.575 72.5859 34.5693 72.5877 34.5645 72.591C34.5597 72.5943 34.5561 72.599 34.554 72.6045C34.4147 73.3869 34.722 76.4595 34.7398 77.199C34.6541 77.1168 32.8999 75.5377 32.882 75.5627C32.6069 76.0164 31.6852 78.0636 31.6208 78.2672C30.967 77.249 28.2018 73.2404 27.4372 72.283C27.4326 72.279 27.4269 72.2766 27.4208 72.2761C27.4147 72.2756 27.4087 72.277 27.4035 72.2802C27.3983 72.2834 27.3943 72.2881 27.392 72.2938C27.3897 72.2994 27.3893 72.3056 27.3908 72.3115C27.9731 73.3834 31.5458 78.6817 31.5958 78.6674C32.0853 77.692 32.5229 76.6914 32.907 75.6699C33.2071 76.0272 34.9863 77.8135 34.9899 77.6813C34.9903 76.7935 34.9438 75.9062 34.8506 75.0232Z" fill="#263238"/>
<path d="M50.2632 93.5834H64.772L67.5122 73.0511H53.007L50.2632 93.5834Z" fill="#A6A6A6"/>
<path d="M50.9778 93.5834H65.4829L68.2268 73.0511H53.718L50.9778 93.5834Z" fill="#DBDBDB"/>
<path d="M61.0135 82.3008C60.9742 82.6832 60.7962 83.0379 60.5132 83.298C60.2301 83.558 59.8616 83.7053 59.4772 83.712C59.2966 83.7152 59.1174 83.6798 58.9515 83.6082C58.7856 83.5367 58.6369 83.4306 58.5152 83.2971C58.3935 83.1636 58.3017 83.0057 58.2458 82.8339C58.1899 82.6621 58.1712 82.4804 58.1911 82.3008C58.2254 81.9155 58.4008 81.5565 58.6837 81.2928C58.9666 81.029 59.337 80.879 59.7237 80.8717C59.9062 80.8684 60.0872 80.9042 60.2546 80.9767C60.4221 81.0493 60.572 81.157 60.6942 81.2924C60.8165 81.4279 60.9082 81.588 60.9633 81.762C61.0184 81.9359 61.0355 82.1197 61.0135 82.3008Z" fill="white"/>
<path d="M24.161 77.642C23.4786 87.199 25.1614 93.7799 26.8441 94.4837C31.3815 96.3844 45.1757 97.4419 48.3375 97.1061C49.5737 96.9775 48.7591 86.7274 47.4301 86.7453C44.136 86.8346 32.0674 86.9346 31.9102 86.8632C30.8849 86.3808 30.8384 83.194 28.4661 76.3844C26.5547 70.8896 24.4397 73.7335 24.161 77.642Z" fill="#AD6359"/>
<path d="M57.9767 84.716C58.1488 84.9641 58.241 85.2589 58.241 85.5609C58.241 85.8629 58.1488 86.1577 57.9767 86.4059C58.4557 86.5886 58.8553 86.9338 59.1057 87.3812C59.5094 88.1922 58.4197 89.1676 58.4197 89.1676C58.876 89.4632 59.2331 89.8888 59.4451 90.3894C59.7559 91.204 58.7949 92.358 58.7949 92.358C59.0643 92.8598 59.1454 93.4415 59.0235 93.9978C58.777 94.9482 56.4083 96.1593 54.9971 96.6095C53.5859 97.0597 49.1664 97.0204 48.3197 97.0954L45.3508 88.0707C45.3508 88.0707 51.0957 84.2515 52.8284 83.955C54.3075 83.7192 57.2943 83.7942 57.9767 84.716Z" fill="#AD6359"/>
<path d="M57.8838 86.2808C56.2689 86.1701 54.7112 86.5452 53.1321 86.8346C53.0964 86.8346 53.1071 86.8953 53.1321 86.8882C54.6969 86.5845 56.3046 86.5952 57.8802 86.3558C57.8883 86.3538 57.8956 86.3491 57.9009 86.3426C57.9062 86.3361 57.9093 86.328 57.9097 86.3196C57.9101 86.3113 57.9078 86.303 57.9031 86.296C57.8985 86.289 57.8917 86.2837 57.8838 86.2808Z" fill="#263238"/>
<path d="M58.3697 89.0711C58.0063 89.0826 57.646 89.1415 57.2979 89.2462C56.9156 89.3355 56.5369 89.4319 56.1582 89.532C55.4044 89.7356 54.6505 89.9571 53.9074 90.2001C53.9031 90.1985 53.8984 90.1979 53.8939 90.1985C53.8893 90.1991 53.8849 90.2008 53.8811 90.2034C53.8773 90.206 53.8743 90.2095 53.8721 90.2136C53.87 90.2177 53.8689 90.2223 53.8689 90.2269C53.8689 90.2315 53.87 90.236 53.8721 90.2401C53.8743 90.2442 53.8773 90.2477 53.8811 90.2503C53.8849 90.253 53.8893 90.2546 53.8939 90.2552C53.8984 90.2558 53.9031 90.2553 53.9074 90.2537C54.6612 90.0536 55.4186 89.8607 56.1796 89.6928C56.5619 89.607 56.9442 89.5284 57.3265 89.4498C57.6928 89.398 58.0523 89.3058 58.3983 89.1747C58.412 89.1709 58.4237 89.1618 58.4307 89.1494C58.4378 89.137 58.4396 89.1224 58.4358 89.1086C58.432 89.0949 58.4229 89.0832 58.4105 89.0762C58.3981 89.0691 58.3834 89.0673 58.3697 89.0711Z" fill="#263238"/>
<path d="M58.7806 92.3758C58.4469 92.3895 58.1181 92.4608 57.8088 92.5866L56.7798 92.8796C56.0903 93.0725 55.4043 93.2619 54.7112 93.4298C54.6755 93.4298 54.6862 93.4941 54.7112 93.4834C55.4258 93.319 56.1403 93.1618 56.8263 92.9868C57.1836 92.9046 57.5194 92.8153 57.8659 92.726C58.1875 92.6759 58.4973 92.5682 58.7806 92.408C58.7806 92.408 58.7984 92.3758 58.7806 92.3758Z" fill="#263238"/>
<path d="M46.1367 86.2594V97.7635L45.2221 97.717C45.1364 97.717 45.0435 97.717 44.947 97.717H44.6398L43.8967 97.6777C43.8502 97.6777 43.8038 97.6777 43.7538 97.6777L42.7034 97.6099H42.4283L41.3779 97.5384H41.235L40.1846 97.4562L39.9095 97.4348L38.8591 97.3455H38.7162L37.6659 97.249L37.3908 97.2204L36.3404 97.1097H36.1975C35.8402 97.0739 35.4829 97.0311 35.1471 96.9918L34.872 96.9596L33.8216 96.8239L33.6823 96.7131L33.1714 96.6417L32.6319 96.5631L32.3568 96.5202L32.2568 96.5023C31.9317 96.4523 31.6173 96.3987 31.3065 96.3415L31.1635 96.3165C30.8063 96.2522 30.449 96.1844 30.1132 96.1129L29.8381 96.0522C29.4808 95.97 29.1235 95.8878 28.7877 95.7985L28.6448 95.7592C28.2804 95.6592 27.9481 95.5556 27.648 95.4484L27.5944 95.4305L27.3193 95.3233C27.205 95.2733 27.0942 95.2269 26.9942 95.1769C26.7368 95.0612 26.4964 94.9109 26.2797 94.7303L26.2439 94.6981L26.1367 94.5873C26.0024 94.4449 25.8827 94.2893 25.7795 94.1229C25.7509 94.08 25.7259 94.0336 25.6973 93.9836C25.5062 93.6464 25.3437 93.2939 25.2114 92.9296L25.115 92.6581L25.0828 92.5581C24.9863 92.2722 24.8934 91.965 24.8077 91.6399V91.6041L24.7755 91.4648C24.6862 91.129 24.6076 90.7753 24.529 90.393C24.529 90.3037 24.4933 90.2144 24.479 90.1215C24.4076 89.7821 24.3468 89.4284 24.2897 89.0675C24.2897 89.0211 24.2718 88.9746 24.2646 88.9282C24.2111 88.5709 24.161 88.2315 24.1146 87.8742C24.1146 87.7849 24.0896 87.692 24.0789 87.6027C24.036 87.2454 23.9931 86.8882 23.9574 86.5488C23.9574 86.5023 23.9574 86.4559 23.9574 86.4094C23.9217 86.0522 23.8895 85.6949 23.8609 85.3555L23.8395 85.084C23.8181 84.8124 23.8002 84.5409 23.7823 84.2694C23.7823 84.1908 23.7823 84.1122 23.7823 84.03V83.8907C23.7609 83.5334 23.7466 83.1761 23.7323 82.8367C23.7323 82.7438 23.7323 82.651 23.7323 82.5616C23.7323 82.2044 23.7109 81.8471 23.7037 81.5113V81.3719C23.7037 81.0146 23.7037 80.6574 23.7037 80.318V80.0429C23.7037 79.6856 23.7037 79.3283 23.7252 78.9925C23.7252 78.9425 23.7252 78.896 23.7252 78.8496C23.7252 78.4923 23.7502 78.135 23.7716 77.7992C23.7716 77.7063 23.7716 77.6134 23.7716 77.5241C23.7716 77.3526 23.7966 77.1919 23.8109 77.0347C23.8252 76.8775 23.8502 76.6488 23.8717 76.4737C23.8717 76.4237 23.8717 76.3773 23.8717 76.3308C23.9038 76.0843 23.9431 75.8628 23.9824 75.6699C24.011 75.5341 24.0396 75.4055 24.0753 75.2805C24.111 75.1554 24.1289 75.0947 24.1575 75.0054C24.2708 74.6341 24.4356 74.2806 24.6469 73.955L24.7541 73.8121L24.8434 73.7049C24.9252 73.608 25.0174 73.5205 25.1185 73.4441C25.2626 73.3226 25.4304 73.2325 25.6113 73.1796C25.7922 73.1267 25.9821 73.1121 26.1689 73.1368L26.3118 73.1654C26.7127 73.2803 27.0738 73.5042 27.355 73.8121C27.3979 73.8549 27.4408 73.8978 27.4837 73.9478C27.5265 73.9979 27.5837 74.0586 27.6301 74.1193C27.8511 74.3943 28.0472 74.6885 28.2161 74.9982L28.3661 75.2733C28.4733 75.4841 28.5769 75.7092 28.6805 75.9521C28.727 76.0665 28.777 76.1844 28.8234 76.3094L28.877 76.4523C28.9806 76.7345 29.0842 77.0347 29.1807 77.3526C29.1807 77.4026 29.2128 77.4527 29.2271 77.5027C29.2414 77.5527 29.2807 77.6849 29.3129 77.7778L29.6309 78.8282L29.6737 78.9711C29.738 79.189 29.8023 79.4034 29.8667 79.6106C29.9095 79.7499 29.9524 79.8857 29.9917 80.0214C30.031 80.1572 30.0489 80.2072 30.0739 80.2965C30.0989 80.3858 30.1203 80.4394 30.1417 80.5109L30.399 81.3505C30.399 81.3969 30.4311 81.4434 30.4454 81.4898C30.5562 81.8471 30.6669 82.2044 30.7705 82.5402C30.8027 82.6331 30.8313 82.726 30.8563 82.8153C30.9742 83.1726 31.0849 83.5298 31.1921 83.8478C31.1921 83.8478 31.1921 83.8478 31.1921 83.8692C31.1921 83.8907 31.2207 83.9621 31.2386 84.0086L31.3279 84.273C31.4244 84.5623 31.5172 84.8232 31.603 85.0625L31.7066 85.334C31.8332 85.6988 31.9922 86.0516 32.1818 86.388C32.2137 86.4382 32.2509 86.4849 32.2925 86.5273C32.3161 86.5493 32.3462 86.5631 32.3783 86.5666H32.6534L33.7037 86.5452H33.8466H34.3111H34.897H35.1721L36.2225 86.5202H36.3654L37.4158 86.4952H37.6909L38.7413 86.4702H38.8842L39.9345 86.4452H40.2096L41.26 86.4166H41.4029L42.4533 86.388H42.7284L43.7788 86.363H43.9217L44.972 86.3344H45.2471L46.1367 86.2594Z" fill="#FFC727"/>
<path opacity="0.2" d="M23.7466 77.0632V84.2801C23.7466 84.2015 23.7466 84.1229 23.7466 84.0407V83.9014C23.7252 83.5441 23.7109 83.1869 23.6966 82.8474C23.6966 82.7546 23.6966 82.6617 23.6966 82.5724C23.6966 82.2151 23.6751 81.8578 23.668 81.522V81.3826C23.668 81.0254 23.668 80.6681 23.668 80.3287V80.0536C23.668 79.6963 23.668 79.339 23.6894 79.0032C23.6894 78.9532 23.6894 78.9068 23.6894 78.8603C23.6894 78.503 23.7144 78.1458 23.7359 77.8099C23.7359 77.717 23.7359 77.6242 23.7359 77.5348C23.718 77.3633 23.7323 77.2026 23.7466 77.0632ZM26.1224 73.1333V94.5695L26.2296 94.6802L26.2654 94.7124V73.1761L26.1224 73.1333ZM24.797 73.7013V91.6184C24.8827 91.9436 24.9756 92.2508 25.0721 92.5366V73.4548C24.971 73.5313 24.8787 73.6187 24.797 73.7156V73.7013ZM27.4443 73.9514C27.4015 73.9014 27.3586 73.8585 27.3157 73.8157V95.3019L27.5908 95.4091V74.1372C27.5444 74.0765 27.4944 74.0193 27.4443 73.9657V73.9514ZM28.6412 75.9557V95.7378L28.7841 95.7771V76.3237C28.7377 76.2022 28.6805 76.0843 28.6412 75.97V75.9557ZM31.2135 84.0264C31.1957 83.98 31.1814 83.9336 31.1671 83.8871C31.1528 83.8407 31.1671 83.8871 31.1671 83.8657V96.2951L31.31 96.3201V84.3051L31.2135 84.0264ZM30.0417 80.3144C30.0167 80.2251 29.9881 80.1322 29.9595 80.0393C29.9309 79.9464 29.8774 79.7678 29.8345 79.6284V96.0307L30.1096 96.0915V80.3287L30.0417 80.3144ZM32.3532 86.5845V96.4988L32.6283 96.5416V86.5952L32.3532 86.5845ZM33.6787 86.5452V96.7131L33.8216 96.7346V86.5595L33.6787 86.5452ZM36.1796 86.4988V96.9989H36.3225V86.5095L36.1796 86.4988ZM34.8541 86.5309V96.8489L35.1292 96.881V86.5202L34.8541 86.5309ZM37.355 86.4702V97.124L37.6301 97.1526V86.4773L37.355 86.4702ZM38.6805 86.438V97.249H38.8234V86.4487L38.6805 86.438ZM41.1814 86.3737V97.4491H41.3243V86.3844L41.1814 86.3737ZM39.9917 86.4059H39.8559V97.3526L40.131 97.3741V86.4166L39.9917 86.4059ZM42.3747 86.3416V97.5384H42.6498V86.3523L42.3747 86.3416ZM43.7001 86.3094V97.6241C43.7502 97.6241 43.7966 97.6241 43.8431 97.6241V86.3201L43.7001 86.3094ZM44.8934 86.2772V97.6885C44.9899 97.6885 45.0828 97.6885 45.1685 97.6885V86.2558L44.8934 86.2772ZM32.2532 96.4952L32.3532 96.513L32.6283 96.5559L33.1678 96.6345H46.1367V96.4952H32.2532ZM44.6398 97.6885H44.947C45.0435 97.6885 45.1364 97.6885 45.2221 97.6885L46.1367 97.7349V97.6599L44.6398 97.6885ZM26.9906 95.1697C27.0906 95.2197 27.2014 95.2662 27.3157 95.3162L27.5908 95.4234L27.6444 95.4412H46.1367V95.1697H26.9906ZM25.6866 93.9764C25.7152 94.0264 25.7402 94.0729 25.7687 94.1158H46.1332V93.9764H25.6866ZM24.7541 91.4755L24.7863 91.6149H46.1367V91.4755H24.7541ZM25.1114 92.6688L25.2078 92.9403H46.1439V92.6688H25.1114ZM24.4647 90.1501C24.4647 90.2429 24.4969 90.3323 24.5147 90.4216H46.1439V90.1501H24.4647ZM24.2503 88.9568C24.2503 89.0032 24.2503 89.0497 24.2754 89.0961H46.1439V88.9568H24.2503ZM23.9288 86.438C23.9288 86.4845 23.9288 86.5309 23.9288 86.5774H32.2532C32.2116 86.5349 32.1744 86.4882 32.1425 86.438H23.9288ZM39.9167 86.438L38.8663 86.463H38.7234L37.673 86.488H37.3979L36.3475 86.513H36.1832L35.1328 86.538H34.8577H34.2718H46.1224V86.3987L39.9167 86.438ZM24.0646 87.6313C24.0646 87.7206 24.086 87.8135 24.1003 87.9028H46.1439V87.6313H24.0646ZM31.5851 85.1304H23.8038L23.8252 85.4019H31.6851L31.5851 85.1304ZM31.1814 83.9014H23.7216V84.0407H31.2028C31.1814 83.9943 31.1814 83.9478 31.1814 83.9014ZM30.3811 81.3826H23.6287V81.522H30.4168C30.399 81.4755 30.3847 81.4291 30.3668 81.3826H30.3811ZM30.7384 82.5724H23.6573C23.6573 82.6617 23.6573 82.7546 23.6573 82.8474H30.8027C30.7991 82.7581 30.7705 82.6652 30.7384 82.5724ZM29.9595 80.0536H23.618V80.3287H30.0488C30.0167 80.2394 29.9881 80.1465 29.9595 80.0536ZM29.6023 78.8603H23.643C23.643 78.9068 23.643 78.9532 23.643 79.0032H29.6451L29.6023 78.8603ZM28.7948 76.3594H23.8288C23.8288 76.4059 23.8288 76.4523 23.8288 76.5023H28.8663L28.7948 76.3594ZM29.1985 77.5527H23.7073C23.7073 77.642 23.7073 77.7349 23.7073 77.8278H29.2986C29.2486 77.717 29.2236 77.6277 29.195 77.5348L29.1985 77.5527ZM28.1803 75.0518H24.111C24.0824 75.1411 24.0539 75.234 24.0288 75.3269H28.3161L28.1803 75.0518ZM27.3157 73.8478H24.7077L24.6005 73.9907H27.4586C27.4015 73.9157 27.3586 73.8728 27.3157 73.8478Z" fill="white"/>
<path d="M46.2118 86.2629C46.221 86.2448 46.2254 86.2246 46.2245 86.2042C46.2236 86.1839 46.2175 86.1641 46.2067 86.1469C46.1959 86.1296 46.1808 86.1154 46.1629 86.1057C46.145 86.096 46.1249 86.0911 46.1046 86.0915C44.2968 86.07 42.4783 86.1665 40.6705 86.2129C38.8627 86.2594 37.0478 86.2951 35.2364 86.3558C34.2182 86.3916 32.2603 86.4809 32.2425 86.4523C32.2246 86.4237 31.678 84.7231 31.5601 84.3694C31.3314 83.6799 31.0921 82.9939 30.8455 82.3044C30.7777 82.1043 30.7062 81.9042 30.6348 81.7078C30.6133 81.572 30.5883 81.4362 30.574 81.304C30.5597 81.1718 30.5311 80.9468 30.5097 80.7467C30.4687 80.3781 30.4079 80.0119 30.3275 79.6499C30.3244 79.6438 30.3192 79.6391 30.3129 79.6365C30.3066 79.6339 30.2995 79.6337 30.2931 79.6358C30.2866 79.638 30.2811 79.6424 30.2776 79.6482C30.2741 79.6541 30.2728 79.661 30.2739 79.6677C30.3477 80.0444 30.3859 80.4272 30.3882 80.811L30.4097 81.0861C30.0524 80.1358 29.9667 79.9678 29.663 79.0068C29.6646 79.0025 29.6651 78.9978 29.6645 78.9932C29.664 78.9887 29.6623 78.9843 29.6597 78.9805C29.657 78.9767 29.6535 78.9736 29.6494 78.9715C29.6453 78.9694 29.6408 78.9683 29.6362 78.9683C29.6316 78.9683 29.627 78.9694 29.6229 78.9715C29.6189 78.9736 29.6154 78.9767 29.6127 78.9805C29.6101 78.9843 29.6084 78.9887 29.6078 78.9932C29.6073 78.9978 29.6078 79.0025 29.6094 79.0068C29.9667 80.3966 30.1596 80.9932 30.5955 82.3651C30.817 83.0582 31.0349 83.7513 31.2671 84.4444C31.3815 84.7803 31.9031 86.3523 32.071 86.6667C32.0924 86.706 33.9288 86.6024 34.8327 86.5881C35.7366 86.5738 36.644 86.5595 37.5515 86.538L42.9856 86.4023C43.9895 86.3773 45.0006 86.3773 46.0045 86.3201C46.0045 86.438 46.0939 87.0346 46.0867 87.0739C46.0796 87.1132 46.1439 87.1204 46.1403 87.0739C46.1367 87.0275 46.2153 86.2737 46.2118 86.2629Z" fill="#263238"/>
<path d="M44.1039 87.1776C44.1039 87.149 44.0539 87.1383 44.0467 87.1776C43.9324 87.9743 43.9145 88.7889 43.8681 89.5927C43.8216 90.3966 43.7859 91.2576 43.7573 92.0936C43.7037 93.7549 43.6216 95.4234 43.668 97.0954C43.668 97.1096 43.6736 97.1232 43.6837 97.1333C43.6937 97.1433 43.7074 97.149 43.7216 97.149C43.7358 97.149 43.7494 97.1433 43.7595 97.1333C43.7695 97.1232 43.7752 97.1096 43.7752 97.0954C43.9395 95.4555 43.9788 93.7942 44.0396 92.1472C44.0705 91.3326 44.0943 90.5157 44.111 89.6963C44.1217 88.8532 44.1646 88.0029 44.1039 87.1776Z" fill="#263238"/>
<path d="M46.226 93.0761V92.7188C46.226 92.6617 46.226 92.6009 46.226 92.5438C46.2342 92.5182 46.2342 92.4907 46.226 92.4652C46.226 92.433 46.226 92.4009 46.226 92.3651H46.1975C46.1975 92.4009 46.1975 92.433 46.1975 92.4652C46.1975 92.4652 46.1975 92.4866 46.1975 92.4902C46.1653 93.3512 46.0724 94.2122 46.0331 95.0732C45.9938 95.9343 45.9795 96.806 45.9867 97.6777C45.0042 97.5956 44.0074 97.6063 43.0213 97.5563C42.0353 97.5062 40.9777 97.4312 39.9559 97.3491C37.9088 97.1847 35.8652 96.9918 33.8288 96.7024L32.1317 96.463C31.5565 96.3808 30.9563 96.338 30.3918 96.2022C30.3561 96.2022 30.3418 96.2522 30.3918 96.2594C30.9099 96.3237 31.4243 96.4666 31.9388 96.5595C32.4533 96.6524 32.9463 96.7381 33.4536 96.8167C34.4635 96.9787 35.477 97.1216 36.494 97.2454C38.5233 97.4979 40.5597 97.6754 42.6033 97.7778L44.3575 97.8528C44.9327 97.8707 45.5151 97.9064 46.0903 97.8778C46.1147 97.8763 46.1379 97.8661 46.1555 97.849C46.1732 97.832 46.1843 97.8093 46.1867 97.7849C46.1867 96.881 46.2332 95.9771 46.2439 95.0732C46.2439 94.6302 46.2439 94.1872 46.2439 93.7442C46.2368 93.5191 46.2332 93.2976 46.226 93.0761Z" fill="#263238"/>
<path d="M67.4372 78.9603C68.3483 80.1322 70.4562 81.4112 70.8206 82.4509C70.9191 82.7046 70.9334 82.9833 70.8614 83.2458C70.7893 83.5083 70.6347 83.7407 70.4204 83.9085C70.4204 83.9085 71.6066 84.2051 71.7816 85.2019C71.8709 85.7163 71.1278 86.313 71.1278 86.313C71.3923 86.3946 71.6292 86.5474 71.8126 86.7548C71.996 86.9621 72.1188 87.2159 72.1675 87.4884C72.2461 88.2029 71.4922 88.6924 71.4922 88.6924C71.4922 88.6924 72.2675 89.3783 72.1139 90.1215C71.8066 91.6506 65.7759 92.9796 64.354 90.9646C63.6895 90.025 65.1793 89.7821 65.1793 89.7821C65.1793 89.7821 62.9535 89.6142 62.6462 88.378C62.339 87.1418 64.2968 86.9489 64.2968 86.9489C64.2968 86.9489 62.1353 86.7703 61.9495 85.4555C61.7638 84.1408 63.7359 84.2194 63.7359 84.2194C63.7359 84.2194 62.1961 83.6084 62.2818 82.5688C62.4247 80.8539 65.7902 82.3151 67.0478 81.7078L67.4372 78.9603Z" fill="#AD6359"/>
<path d="M71.16 86.3165C71.1814 86.3165 71.1957 86.3487 71.16 86.3594C69.002 87.4021 66.542 87.6379 64.2253 87.0239C64.1467 87.0025 64.0967 86.8989 64.1932 86.9203C65.7938 87.2633 69.2521 86.9132 71.16 86.3165Z" fill="#263238"/>
<path d="M63.5894 84.1229C65.8581 84.7017 68.0874 84.4802 70.3454 83.9514C70.374 83.9514 70.3811 83.9836 70.3454 83.9979C69.3164 84.5659 67.8445 84.7588 66.6798 84.816C65.6031 84.8888 64.5261 84.6768 63.5572 84.2015C63.5287 84.1836 63.5394 84.1122 63.5894 84.1229Z" fill="#263238"/>
<path d="M109.799 125.77C109.499 126.577 94.7934 144.859 93.7931 145.202C93.4144 145.334 90.6276 143.348 87.3265 140.85C86.6119 140.311 85.8974 139.75 85.14 139.178C80.3275 135.459 75.3079 131.4 75.3079 131.4L85.1078 119.143L94.6719 127.26L96.7727 129.046C96.7727 129.046 105.533 124.566 106.673 124.309C107.812 124.051 110.099 124.959 109.799 125.77Z" fill="#AD6359"/>
<path d="M109.799 125.77C109.499 126.577 94.7934 144.859 93.793 145.202C93.3286 145.359 89.3129 142.394 85.14 139.178L94.6719 127.26L96.7727 129.046C96.7727 129.046 105.533 124.566 106.673 124.309C107.812 124.051 110.099 124.959 109.799 125.77Z" fill="white"/>
<path d="M109.799 125.77C109.499 126.577 94.7934 144.859 93.793 145.202C93.4143 145.334 90.6276 143.348 87.3264 140.85L96.7727 129.039C96.7727 129.039 105.533 124.559 106.673 124.302C107.812 124.044 110.099 124.959 109.799 125.77Z" fill="#FFC727"/>
<path d="M108.859 125.441C106.315 128.446 96.3547 140.804 94.0717 143.962C94.0717 143.987 94.0717 144.001 94.0896 143.962C96.6726 141.043 106.537 128.599 108.909 125.47C108.959 125.416 108.913 125.38 108.859 125.441Z" fill="#263238"/>
<path d="M105.068 124.937C104.787 125.271 104.579 125.66 104.456 126.079C104.333 126.498 104.298 126.938 104.354 127.37C104.442 128.15 104.825 128.866 105.426 129.371C105.444 129.371 105.472 129.353 105.454 129.335C104.93 128.744 104.612 127.998 104.548 127.21C104.483 126.423 104.676 125.635 105.097 124.966C105.098 124.962 105.097 124.958 105.096 124.954C105.095 124.951 105.093 124.947 105.09 124.945C105.087 124.942 105.084 124.94 105.08 124.938C105.076 124.937 105.072 124.937 105.068 124.937Z" fill="#263238"/>
<path d="M98.0338 128.096C97.0299 129.307 96.3189 131.079 96.7084 132.647C96.7084 132.708 96.812 132.687 96.8227 132.647C97.1224 131.123 97.5847 129.636 98.2018 128.21C98.2169 128.188 98.2226 128.16 98.2176 128.134C98.2126 128.107 98.1972 128.084 98.175 128.069C98.1527 128.054 98.1253 128.048 98.0989 128.053C98.0724 128.058 98.049 128.073 98.0338 128.096Z" fill="#263238"/>
<path d="M99.1664 127.438C98.1625 128.65 97.4515 130.422 97.8409 131.99C97.8409 132.051 97.941 132.029 97.9517 131.99C98.2526 130.466 98.7162 128.978 99.3343 127.553C99.3495 127.53 99.3552 127.503 99.3502 127.477C99.3451 127.45 99.3298 127.427 99.3075 127.412C99.2853 127.396 99.2579 127.391 99.2314 127.396C99.205 127.401 99.1816 127.416 99.1664 127.438Z" fill="#263238"/>
<path d="M100.295 126.795C99.2915 128.006 98.5805 129.778 98.9699 131.347C98.9878 131.408 99.0735 131.386 99.0842 131.347C99.3839 129.823 99.8463 128.335 100.463 126.91C100.478 126.887 100.484 126.86 100.479 126.833C100.474 126.807 100.459 126.784 100.437 126.768C100.414 126.753 100.387 126.748 100.36 126.753C100.334 126.758 100.311 126.773 100.295 126.795Z" fill="#263238"/>
<path d="M101.428 126.145C100.424 127.36 99.713 129.128 100.102 130.697C100.102 130.757 100.202 130.736 100.213 130.697C100.515 129.173 100.978 127.685 101.596 126.259C101.611 126.237 101.617 126.21 101.612 126.183C101.607 126.157 101.591 126.133 101.569 126.118C101.547 126.103 101.519 126.097 101.493 126.102C101.466 126.107 101.443 126.123 101.428 126.145Z" fill="#263238"/>
<path d="M91.7888 140.84C90.6848 142.219 92.8284 143.937 93.9324 142.554C95.0364 141.172 92.8927 139.461 91.7888 140.84Z" fill="#263238"/>
<path d="M95.8474 124.137C94.8327 124.344 94.7077 125.531 94.9328 126.342C95.3466 127.73 96.1192 128.984 97.1728 129.979C97.1765 129.984 97.1813 129.988 97.1869 129.991C97.1925 129.994 97.1987 129.995 97.205 129.995C97.2113 129.995 97.2175 129.994 97.2231 129.991C97.2287 129.988 97.2335 129.984 97.2372 129.979C97.2644 129.992 97.2945 130 97.3251 130C97.3557 130 97.3859 129.992 97.4131 129.979C97.4403 129.965 97.4638 129.944 97.4817 129.919C97.4996 129.895 97.5113 129.866 97.5158 129.836C97.6123 128.478 97.8731 127.038 97.5658 125.688C97.3586 124.895 96.787 123.941 95.8474 124.137ZM97.2407 127.738C97.2086 128.407 97.1443 129.071 97.1371 129.743C96.6813 129.05 96.2604 128.334 95.8759 127.599C95.6962 127.24 95.541 126.868 95.4115 126.488C95.2186 125.895 95.1614 123.866 96.5941 124.816C97.3658 125.33 97.2765 126.942 97.2229 127.738H97.2407Z" fill="#263238"/>
<path d="M95.1578 133.394C96.1796 132.458 96.762 131.111 97.4444 129.932C97.4577 129.905 97.4643 129.875 97.4636 129.844C97.4628 129.814 97.4547 129.784 97.44 129.757C97.4253 129.731 97.4044 129.708 97.379 129.691C97.3536 129.674 97.3246 129.664 97.2943 129.661C97.295 129.654 97.2941 129.647 97.2917 129.641C97.2894 129.635 97.2857 129.629 97.2808 129.625C97.276 129.62 97.2702 129.617 97.2638 129.615C97.2575 129.613 97.2508 129.613 97.2443 129.614C95.813 129.845 94.4683 130.45 93.3465 131.368C92.7034 131.911 92.1425 132.965 92.8642 133.705C93.5858 134.444 94.5612 133.941 95.1578 133.394ZM93.8645 133.573C92.1425 133.555 93.3286 131.908 93.8216 131.526C94.1428 131.282 94.4807 131.061 94.8327 130.865C95.5473 130.447 96.3261 130.15 97.0835 129.793C96.7262 130.35 96.394 130.936 96.0439 131.508C95.6294 132.19 94.8113 133.58 93.8645 133.573Z" fill="#263238"/>
<path d="M94.1611 125.409L83.961 139.171L49.5416 115.291L46.2225 112.987C46.2225 112.987 45.2829 113.619 43.8681 114.416C41.9031 115.488 39.0235 116.877 36.4762 117.253C32.1889 117.885 25.0685 117.817 21.4708 113.001C18.4376 108.946 20.5098 101.601 20.5098 101.601L25.5115 101.047C25.5115 101.047 35.8724 92.3901 43.0821 92.115C46.1368 91.9936 50.5848 94.3087 54.7041 96.7274C58.8234 99.1461 94.1611 125.409 94.1611 125.409Z" fill="#455A64"/>
<path d="M46.2225 112.983C46.2225 112.983 45.2829 113.616 43.8681 114.412C41.3672 111.418 36.0725 105.981 35.9117 105.788L46.2225 112.983Z" fill="#263238"/>
<path d="M28.8413 98.528C28.1768 98.9853 27.5373 99.4784 26.8799 99.9571C26.2225 100.436 25.5723 100.861 24.9613 101.368C24.3504 101.876 23.7466 102.44 23.175 102.994C22.8927 103.262 22.6105 103.533 22.339 103.808C22.0511 104.078 21.7836 104.368 21.5387 104.677C21.5173 104.705 21.5601 104.741 21.5887 104.723C21.8985 104.502 22.1955 104.263 22.4783 104.009C22.7891 103.748 23.0928 103.48 23.4036 103.219C24.0003 102.712 24.6076 102.219 25.19 101.708C25.7723 101.197 26.3297 100.636 26.9156 100.139C27.5015 99.6427 28.2018 99.0675 28.8556 98.5602C28.8663 98.5388 28.8556 98.5173 28.8413 98.528Z" fill="#263238"/>
<path d="M91.7673 124.916C91.1028 125.631 90.4919 126.399 89.8738 127.153C89.2557 127.906 88.6376 128.671 88.0267 129.436C86.8048 130.961 85.5687 132.483 84.3683 134.026C83.7073 134.877 83.0571 135.731 82.4426 136.613C82.4359 136.622 82.433 136.632 82.4343 136.643C82.4356 136.654 82.4412 136.664 82.4497 136.67C82.4582 136.677 82.4691 136.68 82.4798 136.678C82.4905 136.677 82.5003 136.672 82.5069 136.663C83.8252 135.216 85.0078 133.673 86.2475 132.147C87.4872 130.622 88.6912 129.082 89.8881 127.535C90.5455 126.688 91.2243 125.845 91.8281 124.959C91.8304 124.951 91.8302 124.943 91.8274 124.935C91.8247 124.927 91.8197 124.921 91.813 124.916C91.8063 124.911 91.7983 124.909 91.7901 124.909C91.7819 124.909 91.774 124.911 91.7673 124.916Z" fill="#263238"/>
<path d="M64.4362 103.426C63.225 102.022 58.0303 98.3387 54.7113 96.6917C54.7049 96.69 54.6982 96.6906 54.6922 96.6933C54.6863 96.696 54.6814 96.7007 54.6785 96.7065C54.6756 96.7124 54.6747 96.7191 54.6761 96.7255C54.6776 96.7319 54.6811 96.7376 54.6863 96.7417C57.9946 98.8674 63.4465 102.897 64.3861 103.498C64.429 103.523 64.4683 103.462 64.4362 103.426Z" fill="#263238"/>
<path d="M124.468 54.9446H70.6776V76.4487H124.468V54.9446Z" fill="#EBEBEB"/>
<path d="M70.6884 76.4523V80.7253L74.5612 76.4523H70.6884Z" fill="#EBEBEB"/>
<path d="M80.9956 74.6052C85.6187 74.6052 89.3664 70.8575 89.3664 66.2344C89.3664 61.6113 85.6187 57.8635 80.9956 57.8635C76.3725 57.8635 72.6248 61.6113 72.6248 66.2344C72.6248 70.8575 76.3725 74.6052 80.9956 74.6052Z" fill="white"/>
<path d="M118.934 65.6985H93.4108V66.2344H118.934V65.6985Z" fill="#263238"/>
<path d="M116.144 67.3312H93.4108V67.8671H116.144V67.3312Z" fill="white"/>
<path d="M112.203 68.9639H93.4108V69.4998H112.203V68.9639Z" fill="white"/>
<path d="M113.954 70.5966H93.4108V71.1325H113.954V70.5966Z" fill="white"/>
<mask id="mask0_3_307" style="mask-type:luminance" maskUnits="userSpaceOnUse" x="72" y="55" width="18" height="20">
<path d="M89.3665 66.3094C89.3683 66.2856 89.3683 66.2617 89.3665 66.2379C89.3681 65.3707 89.233 64.5087 88.9663 63.6835C88.7772 62.6532 88.5339 61.6335 88.2375 60.6288C87.7571 58.8169 86.5879 57.2644 84.9792 56.3023C84.8769 56.2281 84.7694 56.1612 84.6577 56.1022C84.636 56.0846 84.6119 56.0701 84.5862 56.0593L84.5112 56.02C82.4747 54.8982 80.1846 55.4234 78.4376 56.2201C77.569 56.6119 76.8133 57.2165 76.2404 57.9779C75.5426 58.8078 75.0047 59.7599 74.6541 60.786C73.6058 62.0109 72.9335 63.5124 72.718 65.1102C72.5025 66.708 72.753 68.334 73.4394 69.7928C73.4507 70.2254 73.4853 70.6572 73.543 71.0861C73.543 71.1433 73.6287 71.1325 73.6287 71.0861C73.6287 70.7824 73.6287 70.4823 73.6287 70.1822C73.7359 70.3775 73.855 70.5704 73.986 70.761C73.986 70.911 73.986 71.0575 73.986 71.204C73.986 71.4112 74.2932 71.6363 74.8149 71.8614C75.6144 72.7423 76.5924 73.4428 77.6839 73.9162C78.7753 74.3896 79.9551 74.625 81.1446 74.6068C82.3342 74.5885 83.5062 74.317 84.5826 73.8104C85.659 73.3037 86.6151 72.5735 87.3872 71.6685C87.9037 71.4281 88.3944 71.136 88.852 70.7967C89.0771 70.6288 89.1486 69.7249 89.0842 68.4602C89.1711 68.1637 89.2379 67.8617 89.2843 67.5563C89.3843 68.4959 89.4629 69.4391 89.538 70.3823C89.538 70.4502 89.6452 70.443 89.6452 70.3823C89.6209 69.0208 89.5279 67.6615 89.3665 66.3094ZM86.5905 57.96C86.5155 57.8492 86.4333 57.7421 86.3547 57.6384C87.2796 58.7202 87.926 60.0117 88.2375 61.4005C88.3304 61.7578 88.4162 62.1365 88.4948 62.5045C88.357 62.2307 88.2044 61.9647 88.0374 61.7078C87.6302 60.1393 87.1478 58.7567 86.5905 57.96Z" fill="white"/>
</mask>
<g mask="url(#mask0_3_307)">
<path d="M78.4233 56.2236C74.5469 57.9671 73.7109 63.4298 73.9646 71.204C74.0039 72.3866 84.0003 74.4409 88.8377 70.7967C89.6166 70.2072 88.509 60.6967 86.5905 57.96C84.2111 54.5552 80.8206 55.1447 78.4233 56.2236Z" fill="#263238"/>
<path d="M78.3161 56.3022C76.2904 57.3348 74.9863 59.3855 74.3861 61.5363C73.9971 63.1347 73.7284 64.7601 73.5823 66.3987C73.3657 67.9547 73.3417 69.5314 73.5108 71.0932C73.5108 71.1046 73.5153 71.1155 73.5234 71.1236C73.5314 71.1316 73.5423 71.1361 73.5537 71.1361C73.5651 71.1361 73.576 71.1316 73.584 71.1236C73.592 71.1155 73.5966 71.1046 73.5966 71.0932C73.5801 68.1487 73.8855 65.2111 74.5076 62.333C75.0114 59.9214 76.2511 57.7635 78.3804 56.4594C78.4769 56.4023 78.4054 56.2594 78.3161 56.3022Z" fill="#263238"/>
<path d="M88.2411 60.6288C87.9274 59.4432 87.3156 58.3576 86.4638 57.4752C85.6121 56.5929 84.5488 55.9431 83.3751 55.5877V55.6163C86.0617 56.6309 87.5694 58.6781 88.2482 61.3933C88.9878 64.3515 89.2879 67.3526 89.5308 70.3787C89.5308 70.3929 89.5365 70.4065 89.5465 70.4166C89.5566 70.4266 89.5702 70.4323 89.5844 70.4323C89.5986 70.4323 89.6123 70.4266 89.6223 70.4166C89.6324 70.4065 89.638 70.3929 89.638 70.3787C89.6111 67.0808 89.1413 63.8015 88.2411 60.6288Z" fill="#263238"/>
<path d="M75.5473 74.1157L75.5794 74.1408C77.3336 75.3376 80.7991 77.4384 82.6498 76.7703C83.1928 76.551 83.6834 76.2197 84.0897 75.798C84.496 75.3763 84.8088 74.8737 85.0078 74.323C84.2841 73.7381 83.5187 73.2067 82.7177 72.7331C79.9846 70.9146 77.5194 72.0043 75.5473 74.1157Z" fill="#A6A6A6"/>
<path d="M78.1875 73.0832C78.3125 73.487 80.4526 76.0236 82.3247 75.8092C82.9356 75.7413 82.6998 72.3937 82.6998 72.3937L82.7391 72.1436L83.2821 68.6281L79.0556 66.288L78.4447 65.9807C78.4447 65.9807 78.359 66.9525 78.2661 68.1636C78.2661 68.2208 78.2661 68.278 78.2661 68.3351C78.2661 68.3923 78.2661 68.4709 78.2482 68.5352C78.2482 68.7138 78.2161 68.8925 78.2053 69.0818C78.1946 69.2712 78.1839 69.3605 78.1803 69.507C78.1768 69.6534 78.1803 69.7999 78.1553 69.9464C78.0943 70.9915 78.1051 72.0396 78.1875 73.0832Z" fill="#F7A9A0"/>
<path d="M78.2482 68.1636C78.6634 69.113 79.2802 69.9606 80.0556 70.6479C80.8311 71.3351 81.7468 71.8455 82.7391 72.1436L83.2822 68.6281L79.0557 66.288L78.4447 65.9807C78.4447 65.9807 78.3411 66.9525 78.2482 68.1636Z" fill="#263238"/>
<path d="M87.6302 62.7724C88.6091 68.9389 85.0257 70.2215 83.7002 70.4323C82.4962 70.6216 78.5984 70.9146 76.9871 64.8839C75.3758 58.8532 77.7016 56.6667 80.4312 56.07C83.1607 55.4734 86.6477 56.6131 87.6302 62.7724Z" fill="#F7A9A0"/>
<path d="M86.5583 62.4151C86.4236 62.4638 86.2865 62.5056 86.1475 62.5402C86.0088 62.6076 85.8511 62.6253 85.7009 62.5902C85.6559 62.571 85.6186 62.5375 85.5947 62.4948C85.5708 62.4522 85.5616 62.4028 85.5687 62.3544C85.5983 62.2607 85.6523 62.1766 85.7251 62.1107C85.7979 62.0448 85.887 61.9994 85.9831 61.9793C86.1704 61.9061 86.3783 61.9061 86.5655 61.9793C86.607 61.999 86.642 62.0302 86.6663 62.0693C86.6906 62.1083 86.7031 62.1535 86.7023 62.1995C86.7016 62.2455 86.6876 62.2903 86.6621 62.3285C86.6365 62.3667 86.6005 62.3968 86.5583 62.4151Z" fill="#263238"/>
<path d="M82.021 62.5973C82.1631 62.6189 82.3062 62.6332 82.4497 62.6402C82.5984 62.6789 82.7557 62.6663 82.8963 62.6045C82.9363 62.5757 82.9659 62.5347 82.9807 62.4877C82.9955 62.4407 82.9947 62.3902 82.9785 62.3437C82.932 62.2572 82.8629 62.185 82.7786 62.1346C82.6943 62.0843 82.5979 62.0578 82.4997 62.0579C82.3016 62.0248 82.0983 62.0655 81.9281 62.1722C81.8915 62.1997 81.8635 62.2372 81.8476 62.2802C81.8317 62.3232 81.8284 62.3698 81.8382 62.4146C81.8479 62.4593 81.8704 62.5004 81.9028 62.5328C81.9352 62.5652 81.9762 62.5876 82.021 62.5973Z" fill="#263238"/>
<path d="M83.0142 64.0264C83.0142 64.0264 82.9821 64.0514 82.9857 64.0657C83.0464 64.4873 83.0464 64.9803 82.6784 65.1626C82.6784 65.1626 82.6784 65.1911 82.6784 65.1876C83.1429 65.0697 83.1393 64.4159 83.0142 64.0264Z" fill="#263238"/>
<path d="M82.5891 63.6263C81.9031 63.6513 82.0031 65.0196 82.6355 64.9982C83.2679 64.9768 83.1607 63.6084 82.5891 63.6263Z" fill="#263238"/>
<path d="M82.3247 63.7192C82.2103 63.8049 82.1032 63.9514 81.9674 63.9728C81.8316 63.9943 81.6673 63.8692 81.5458 63.737C81.5458 63.737 81.5244 63.737 81.5244 63.7549C81.5244 64.0193 81.6601 64.2801 81.9424 64.298C82.2246 64.3158 82.3711 64.0729 82.4176 63.8014C82.4176 63.7513 82.3711 63.6834 82.3247 63.7192Z" fill="#263238"/>
<path d="M85.6544 63.6406C85.6544 63.6406 85.6902 63.6406 85.6902 63.6763C85.6902 64.1015 85.7938 64.5873 86.1868 64.7017V64.7267C85.7116 64.691 85.6008 64.0479 85.6544 63.6406Z" fill="#263238"/>
<path d="M86.0082 63.1726C86.687 63.0797 86.8263 64.4444 86.1975 64.5302C85.5687 64.6159 85.4365 63.2547 86.0082 63.1726Z" fill="#263238"/>
<path d="M86.3011 63.2333C86.4154 63.294 86.5369 63.4155 86.6584 63.4119C86.7798 63.4083 86.9049 63.2476 86.9835 63.094C86.9835 63.094 87.0049 63.094 87.0085 63.094C87.0406 63.3548 86.9835 63.6334 86.737 63.7085C86.4904 63.7835 86.3225 63.5727 86.2332 63.319C86.2261 63.2869 86.2546 63.2083 86.3011 63.2333Z" fill="#263238"/>
<path d="M85.1388 65.7138C85.1388 65.7138 85.2886 66.3478 85.3192 66.6493C84.6984 66.6206 84.0786 66.723 83.4979 66.9504C83.4661 66.951 82.0412 66.2537 83.4783 66.8525C84.9154 67.4513 85.1388 66.9504 85.0717 66.4358C85.0045 65.9211 84.7913 65.4403 84.837 65.4321C85.067 65.4306 85.2963 65.4591 85.5194 65.5171C85.2432 64.1904 84.7635 62.9149 84.5049 61.5878C84.501 61.5777 84.5011 61.5665 84.5052 61.5565C84.5093 61.5465 84.5171 61.5387 84.5268 61.5346C84.5365 61.5306 84.5475 61.5307 84.5571 61.5349C84.5668 61.5392 84.5744 61.5472 84.5784 61.5573C85.1348 62.9074 85.5602 64.311 85.8484 65.7473C85.8764 65.9179 85.2596 65.7588 85.1388 65.7138Z" fill="#263238"/>
<path d="M76.9799 64.8875C77.6444 64.7946 79.2414 62.8081 79.0306 59.5677C79.0306 59.5677 79.0306 62.4902 78.8341 62.9368C78.6377 63.3833 79.7238 61.8185 79.5916 59.2033C80.4613 59.7244 81.4008 60.119 82.3818 60.3751C83.643 60.6181 84.3968 60.5466 84.479 60.4502C84.5612 60.3537 82.6927 59.9285 82.1603 59.4034C82.1603 59.4034 85.5651 60.6609 87.0835 60.6538C87.2586 60.6538 87.0478 57.4026 84.5826 56.0664C82.1175 54.7303 78.6841 56.3165 77.7659 57.3598C77.7659 57.3598 76.6119 57.6206 75.483 59.4534C74.354 61.2862 76.2582 64.9911 76.9799 64.8875Z" fill="#263238"/>
<path d="M78.4376 65.4055C78.4376 65.4055 76.9406 63.562 76.0939 64.1086C75.2471 64.6552 76.4511 67.3991 77.523 67.7099C77.6566 67.7572 77.7983 67.7775 77.9399 67.7696C78.0815 67.7617 78.2201 67.7259 78.3477 67.6641C78.4753 67.6022 78.5893 67.5157 78.6833 67.4095C78.7772 67.3033 78.8491 67.1796 78.8949 67.0454L78.4376 65.4055Z" fill="#F7A9A0"/>
<path d="M76.4619 64.8839V64.9125C77.2086 65.1554 77.6373 65.8021 77.9553 66.4809C77.9083 66.411 77.8466 66.3523 77.7746 66.3087C77.7026 66.2652 77.6219 66.2378 77.5382 66.2287C77.4545 66.2195 77.3699 66.2287 77.2901 66.2556C77.2103 66.2825 77.1374 66.3264 77.0764 66.3844C77.073 66.3878 77.0708 66.3922 77.0702 66.397C77.0696 66.4018 77.0706 66.4066 77.0731 66.4107C77.0755 66.4148 77.0793 66.418 77.0838 66.4197C77.0883 66.4214 77.0932 66.4216 77.0978 66.4201C77.2208 66.3748 77.3546 66.3672 77.4819 66.3984C77.6092 66.4296 77.7243 66.4981 77.8124 66.5952C77.9586 66.7661 78.0867 66.9517 78.1946 67.149C78.2339 67.2097 78.3483 67.1668 78.3197 67.0954C78.2732 66.1522 77.4622 64.916 76.4619 64.8839Z" fill="#263238"/>
</g>
<path d="M128.041 27.4741H74.2504V48.9782H128.041V27.4741Z" fill="#EBEBEB"/>
<path d="M74.2611 48.9782V53.2512L78.1339 48.9782H74.2611Z" fill="#EBEBEB"/>
<path d="M84.5683 47.1347C89.1914 47.1347 92.9392 43.3869 92.9392 38.7638C92.9392 34.1408 89.1914 30.393 84.5683 30.393C79.9452 30.393 76.1975 34.1408 76.1975 38.7638C76.1975 43.3869 79.9452 47.1347 84.5683 47.1347Z" fill="white"/>
<path d="M98.9627 31.7471L99.5737 32.9868L100.942 33.1869L99.9524 34.1515L100.185 35.5163L98.9627 34.8696L97.7373 35.5163L97.9731 34.1515L96.9835 33.1869L98.3518 32.9868L98.9627 31.7471Z" fill="#FFC727"/>
<path d="M104.354 31.7471L104.965 32.9868L106.333 33.1869L105.344 34.1515L105.576 35.5163L104.354 34.8696L103.129 35.5163L103.361 34.1515L102.371 33.1869L103.739 32.9868L104.354 31.7471Z" fill="#FFC727"/>
<path d="M109.742 31.7471L110.356 32.9868L111.724 33.1869L110.735 34.1515L110.967 35.5163L109.742 34.8696L108.52 35.5163L108.752 34.1515L107.762 33.1869L109.131 32.9868L109.742 31.7471Z" fill="#FFC727"/>
<path d="M115.139 31.7471L115.754 32.9868L117.122 33.1869L116.132 34.1515L116.364 35.5163L115.139 34.8696L113.917 35.5163L114.149 34.1515L113.16 33.1869L114.528 32.9868L115.139 31.7471Z" fill="#FFC727"/>
<path d="M120.524 31.7471L121.135 32.9868L122.503 33.1869L121.514 34.1515L121.746 35.5163L120.524 34.8696L119.299 35.5163L119.534 34.1515L118.541 33.1869L119.91 32.9868L120.524 31.7471Z" fill="#C7C7C7"/>
<path d="M122.507 38.2244H96.9835V38.7603H122.507V38.2244Z" fill="#263238"/>
<path d="M111.907 39.8571H96.9835V40.393H111.907V39.8571Z" fill="white"/>
<path d="M119.016 41.4934H96.9835V42.0293H119.016V41.4934Z" fill="white"/>
<path d="M117.116 43.1261H96.9835V43.662H117.116V43.1261Z" fill="white"/>
<mask id="mask1_3_307" style="mask-type:luminance" maskUnits="userSpaceOnUse" x="76" y="28" width="17" height="20">
<path d="M92.9427 38.7639C92.9432 40.2303 92.5585 41.6711 91.8273 42.9422C91.096 44.2134 90.0438 45.2702 88.7759 46.007C87.508 46.7438 86.0689 47.1347 84.6025 47.1407C83.136 47.1467 81.6937 46.7675 80.4199 46.041C79.146 45.3146 78.0852 44.2664 77.3436 43.0013C76.6021 41.7362 76.2057 40.2985 76.1942 38.8321C76.1826 37.3657 76.5564 35.922 77.278 34.6454C77.9996 33.3688 79.0438 32.3041 80.3061 31.5577C80.6955 30.3073 81.703 29.1175 83.9503 28.5531C88.3483 27.4562 89.3093 30.6288 89.4165 30.9718C89.5683 31.379 89.6983 31.794 89.8059 32.2151C90.7891 32.9991 91.582 33.9956 92.1253 35.1298C92.6685 36.2639 92.948 37.5063 92.9427 38.7639Z" fill="white"/>
</mask>
<g mask="url(#mask1_3_307)">
<path d="M86.9656 44.3123L86.2225 47.667L81.1635 44.1944L79.9059 46.0486C79.9059 46.0486 83.2178 50.5288 86.7441 50.5288C88.5983 50.5288 88.9592 46.2808 88.9592 46.2808L86.9656 44.3123Z" fill="#FFC727"/>
<path d="M86.1153 48.1243C84.7577 48.5459 82.2353 46.5952 81.1778 44.9482C81.1064 44.8339 81.1993 43.5834 81.2421 42.0579C81.2636 41.1325 81.2671 40.1 81.2028 39.1604C81.2028 38.9675 81.8709 39.2747 81.8709 39.2747L83.1107 39.4855L87.205 40.2001C86.9502 41.3996 86.8434 42.6258 86.887 43.8514C86.8959 43.982 86.9187 44.1114 86.9549 44.2372C86.9537 44.2586 86.9537 44.2801 86.9549 44.3015C87.1371 45.0161 87.4336 47.717 86.1153 48.1243Z" fill="#EB9481"/>
<path d="M86.9549 44.2479C86.9537 44.2694 86.9537 44.2908 86.9549 44.3123C86.756 44.3537 86.5541 44.3788 86.3511 44.3873C82.3711 44.5731 81.5244 39.5534 81.5244 39.5534L83.0999 39.5105L87.1943 40.2251C86.9395 41.4258 86.8327 42.6532 86.8763 43.88C86.8897 44.005 86.916 44.1283 86.9549 44.2479Z" fill="#263238"/>
<path d="M80.6919 31.6685C79.9774 33.737 80.8134 39.8428 82.2461 41.254C84.3254 43.3047 87.8552 43.6406 89.6308 41.1147C91.3493 38.6638 90.1024 30.7288 88.4876 29.4319C86.1117 27.5205 81.7709 28.6138 80.6919 31.6685Z" fill="#EB9481"/>
<path d="M86.5583 35.8985C86.5583 35.8807 86.5297 35.92 86.5333 35.9378C86.6012 36.3487 86.6083 36.8274 86.2546 37.0096C86.2546 37.0096 86.2546 37.0382 86.2546 37.0347C86.7155 36.9132 86.6977 36.2737 86.5583 35.8985Z" fill="#263238"/>
<path d="M86.1403 35.5163C85.4722 35.5556 85.5973 36.8882 86.2189 36.8524C86.8406 36.8167 86.7012 35.4841 86.1403 35.5163Z" fill="#263238"/>
<path d="M88.9628 35.7378C88.9628 35.7378 88.9985 35.7378 88.9985 35.7735C89.0235 36.1879 89.1235 36.656 89.5129 36.7596V36.781C89.0592 36.7596 88.9235 36.1343 88.9628 35.7378Z" fill="#263238"/>
<path d="M89.2914 35.2626C89.9524 35.1483 90.131 36.4773 89.5201 36.5809C88.9092 36.6845 88.7377 35.3662 89.2914 35.2626Z" fill="#263238"/>
<path d="M85.5579 34.9589C85.733 34.8946 85.8866 34.8053 86.0545 34.7267C86.2425 34.6717 86.4063 34.5546 86.519 34.3944C86.5455 34.3375 86.5526 34.2734 86.539 34.212C86.5255 34.1507 86.492 34.0955 86.444 34.055C86.3353 33.9923 86.2121 33.9593 86.0867 33.9593C85.9613 33.9593 85.8381 33.9923 85.7294 34.055C85.4903 34.1476 85.2942 34.3259 85.1792 34.5552C85.1569 34.6092 85.1505 34.6685 85.161 34.726C85.1714 34.7834 85.1983 34.8367 85.2383 34.8793C85.2782 34.9219 85.3297 34.9521 85.3864 34.9662C85.4431 34.9804 85.5027 34.9778 85.5579 34.9589Z" fill="#263238"/>
<path d="M89.7452 34.5481C89.5558 34.5481 89.3879 34.4909 89.2021 34.4623C89.0054 34.4588 88.8155 34.3896 88.6626 34.2658C88.6221 34.2151 88.5999 34.1521 88.5999 34.0872C88.5999 34.0222 88.6221 33.9592 88.6626 33.9085C88.7494 33.8192 88.858 33.754 88.9777 33.7195C89.0974 33.6851 89.224 33.6825 89.345 33.712C89.6002 33.7362 89.8372 33.8546 90.0096 34.0443C90.053 34.0897 90.0811 34.1476 90.0898 34.2099C90.0986 34.2721 90.0876 34.3355 90.0584 34.3912C90.0292 34.4468 89.9833 34.4919 89.9271 34.5201C89.8709 34.5482 89.8072 34.558 89.7452 34.5481Z" fill="#263238"/>
<path d="M86.7977 38.6709C87.2193 39.0282 88.6305 39.0282 88.6341 38.9639L88.5197 37.9743C88.6412 38.0243 89.2593 38.2351 89.2343 38.0672C89.06 36.637 88.7416 35.2282 88.2839 33.8621C88.2814 33.8541 88.2764 33.8471 88.2697 33.8421C88.263 33.8372 88.2548 33.8345 88.2464 33.8345C88.238 33.8345 88.2299 33.8372 88.2231 33.8421C88.2164 33.8471 88.2114 33.8541 88.2089 33.8621C88.3625 35.184 88.7448 36.4737 88.9234 37.7921C88.7034 37.7146 88.4738 37.6677 88.2411 37.6527C88.1946 37.6706 88.4054 38.5781 88.4018 38.7245C87.8888 38.7479 87.3757 38.679 86.887 38.5209C86.7227 38.478 86.6869 38.5781 86.7977 38.6709Z" fill="#263238"/>
<path d="M81.4351 36.5988C81.9567 36.4666 82.4462 34.7553 82.464 33.0975C82.464 32.0257 82.9035 30.686 84.0932 30.2858C84.8827 30.0179 86.2582 30.6681 87.0478 30.4752C87.8374 30.2822 87.9803 29.8357 88.4447 29.8464C88.9092 29.8571 89.4272 31.0039 89.4272 31.0039C89.4272 31.0039 88.5984 27.3919 83.9503 28.5531C79.0557 29.7785 80.0417 33.9693 80.5133 35.3126C80.8742 36.3523 81.4351 36.5988 81.4351 36.5988Z" fill="#263238"/>
<path d="M81.7781 36.6595C81.7781 36.6595 80.4526 34.6695 79.5523 35.1375C78.6519 35.6056 79.6166 38.4709 80.6527 38.8817C80.7817 38.9413 80.9214 38.9746 81.0634 38.9796C81.2055 38.9847 81.3472 38.9614 81.4801 38.9112C81.6131 38.861 81.7348 38.7849 81.8381 38.6872C81.9414 38.5895 82.0242 38.4723 82.0817 38.3423L81.7781 36.6595Z" fill="#EB9481"/>
<path d="M79.8488 35.9771V36.0057C80.5633 36.3201 80.9456 37.0061 81.1993 37.717C81.1582 37.6427 81.1016 37.5782 81.0333 37.5278C80.965 37.4774 80.8865 37.4423 80.8034 37.425C80.7203 37.4077 80.6344 37.4086 80.5517 37.4275C80.4689 37.4465 80.3913 37.4831 80.324 37.5348C80.3213 37.5387 80.3197 37.5431 80.3195 37.5478C80.3192 37.5524 80.3203 37.557 80.3225 37.5611C80.3247 37.5652 80.3281 37.5686 80.3321 37.5709C80.3361 37.5732 80.3407 37.5743 80.3454 37.5741C80.4753 37.5351 80.6142 37.5379 80.7424 37.5821C80.8707 37.6264 80.9817 37.7098 81.0599 37.8207C81.194 38.0031 81.3056 38.201 81.3922 38.4101C81.4244 38.4745 81.5458 38.4423 81.5208 38.3673V38.3494C81.5565 37.4062 80.842 36.0915 79.8488 35.9771Z" fill="#263238"/>
</g>
<path d="M131.614 0H77.8231V21.5041H131.614V0Z" fill="#EBEBEB"/>
<path d="M77.8338 21.5041V25.7806L81.7066 21.5041H77.8338Z" fill="#EBEBEB"/>
<path d="M88.141 19.6606C92.7641 19.6606 96.5119 15.9128 96.5119 11.2897C96.5119 6.66665 92.7641 2.91889 88.141 2.91889C83.518 2.91889 79.7702 6.66665 79.7702 11.2897C79.7702 15.9128 83.518 19.6606 88.141 19.6606Z" fill="white"/>
<path d="M102.535 4.55878L103.146 5.7985L104.515 5.99858L103.525 6.96321L103.757 8.32798L102.535 7.68489L101.31 8.32798L101.546 6.96321L100.556 5.99858L101.925 5.7985L102.535 4.55878Z" fill="#FFC727"/>
<path d="M107.927 4.55878L108.538 5.7985L109.906 5.99858L108.916 6.96321L109.149 8.32798L107.927 7.68489L106.701 8.32798L106.933 6.96321L105.944 5.99858L107.312 5.7985L107.927 4.55878Z" fill="#FFC727"/>
<path d="M113.314 4.55878L113.929 5.7985L115.297 5.99858L114.308 6.96321L114.54 8.32798L113.314 7.68489L112.092 8.32798L112.325 6.96321L111.335 5.99858L112.703 5.7985L113.314 4.55878Z" fill="#FFC727"/>
<path d="M118.706 4.55878L119.316 5.7985L120.685 5.99858L119.695 6.96321L119.931 8.32798L118.706 7.68489L117.48 8.32798L117.716 6.96321L116.726 5.99858L118.095 5.7985L118.706 4.55878Z" fill="#FFC727"/>
<path d="M124.097 4.55878L124.708 5.7985L126.076 5.99858L125.086 6.96321L125.319 8.32798L124.097 7.68489L122.871 8.32798L123.107 6.96321L122.114 5.99858L123.482 5.7985L124.097 4.55878Z" fill="#FFC727"/>
<path d="M95.0853 59.6418L95.6962 60.8815L97.0646 61.0816L96.0749 62.0462L96.3071 63.411L95.0853 62.7679L93.8598 63.411L94.0956 62.0462L93.106 61.0816L94.4743 60.8815L95.0853 59.6418Z" fill="#FFC727"/>
<path d="M100.476 59.6418L101.087 60.8815L102.456 61.0816L101.466 62.0462L101.698 63.411L100.476 62.7679L99.2511 63.411L99.4833 62.0462L98.4937 61.0816L99.862 60.8815L100.476 59.6418Z" fill="#FFC727"/>
<path d="M105.864 59.6418L106.479 60.8815L107.847 61.0816L106.857 62.0462L107.09 63.411L105.864 62.7679L104.642 63.411L104.874 62.0462L103.885 61.0816L105.253 60.8815L105.864 59.6418Z" fill="#FFC727"/>
<path d="M111.255 59.6418L111.866 60.8815L113.235 61.0816L112.245 62.0462L112.481 63.411L111.255 62.7679L110.03 63.411L110.266 62.0462L109.276 61.0816L110.644 60.8815L111.255 59.6418Z" fill="#FFC727"/>
<path d="M116.647 59.6418L117.257 60.8815L118.626 61.0816L117.636 62.0462L117.868 63.411L116.647 62.7679L115.421 63.411L115.657 62.0462L114.664 61.0816L116.032 60.8815L116.647 59.6418Z" fill="#FFC727"/>
<path d="M126.08 10.7538H100.556V11.2898H126.08V10.7538Z" fill="#263238"/>
<path d="M119.545 12.3866H100.556V12.9225H119.545V12.3866Z" fill="white"/>
<path d="M123.289 14.0193H100.556V14.5552H123.289V14.0193Z" fill="white"/>
<path d="M110.31 15.652H100.556V16.1879H110.31V15.652Z" fill="white"/>
<path d="M96.9192 17.6635H96.2046C96.1332 16.7524 95.5544 15.3591 95.7009 16.0629C95.794 16.591 95.8252 17.1281 95.7938 17.6635H83.7002C83.5608 16.2915 84.1718 14.0372 84.1718 14.0372C83.4572 15.1697 83.2036 16.7774 83.1 17.6635H81.9603C81.9198 16.9196 81.9774 16.1736 82.1317 15.4448C81.8243 16.1494 81.6302 16.8982 81.5565 17.6635H80.2561C80.2633 15.9448 80.7901 14.2684 81.7673 12.8546C82.6462 11.5434 81.5601 10.7789 81.5816 8.21008C81.603 4.81244 83.936 3.5084 84.3218 3.15113C89.5987 -1.73633 94.3861 2.79386 94.897 6.02715C95.3936 9.18542 94.4862 9.59986 95.9688 12.458C97.0514 14.6409 96.9192 17.6635 96.9192 17.6635Z" fill="#263238"/>
<path d="M82.6927 19.4391L82.7248 19.4605C84.479 20.6574 87.9445 22.7581 89.7952 22.09C90.3379 21.8713 90.8284 21.5407 91.2347 21.1196C91.641 20.6985 91.954 20.1965 92.1532 19.6463C91.4303 19.0593 90.6648 18.5267 89.8631 18.0529C87.13 16.2379 84.6648 17.324 82.6927 19.4391Z" fill="#455A64"/>
<path d="M85.3329 18.403C85.4579 18.8067 87.598 21.3433 89.4701 21.129C90.081 21.0611 89.8452 17.7135 89.8452 17.7135L89.8845 17.4634L90.4276 13.9478L86.2011 11.6077L85.5901 11.304C85.5901 11.304 85.5044 12.2722 85.4115 13.4834C85.4115 13.5405 85.4115 13.5977 85.4115 13.6584C85.4115 13.7192 85.4115 13.7906 85.3936 13.8549C85.3936 14.0336 85.3615 14.2122 85.3508 14.4016C85.34 14.5909 85.3293 14.6802 85.3257 14.8267C85.3222 14.9732 85.3258 15.1197 85.3007 15.2662C85.2397 16.3113 85.2505 17.3593 85.3329 18.403Z" fill="#DD6A57"/>
<path d="M85.3936 13.4691C85.8088 14.4184 86.4256 15.2661 87.201 15.9534C87.9765 16.6406 88.8921 17.151 89.8845 17.4491L90.4276 13.9335L86.2011 11.6077L85.5901 11.304C85.5901 11.304 85.4865 12.2722 85.3936 13.4691Z" fill="#263238"/>
<path d="M94.7756 8.11004C95.7545 14.2765 92.1711 15.5591 90.8456 15.7699C89.6416 15.9593 85.4865 16.4559 83.8931 10.4109C82.2997 4.36585 84.8399 1.97571 87.5766 1.39336C90.3133 0.811008 93.7931 1.93284 94.7756 8.11004Z" fill="#DD6A57"/>
<path d="M84.3933 10.8432C85.9367 10.6574 85.9903 5.84136 85.9903 5.2733C86.0117 5.63057 86.1189 7.60628 86.2761 7.67416C86.4417 7.65574 86.6033 7.61112 86.7548 7.54197C86.7363 7.30415 86.7363 7.06525 86.7548 6.82743C86.7548 6.71668 86.8156 7.05966 86.912 7.47766L87.1907 7.37405C87.1319 6.875 87.1404 6.37033 87.2157 5.87352C87.2443 5.68417 87.3622 6.51303 87.6016 7.224C88.8908 6.73118 90.2303 6.38134 91.5958 6.18077C91.9817 6.13432 92.3104 6.11289 92.6105 6.10217C92.564 5.52339 92.4461 4.91246 92.4997 5.03036C92.646 5.37563 92.7573 5.7347 92.832 6.10217H93.275C93.2464 5.28402 92.7498 4.01214 92.8963 4.19792C93.3357 4.78061 93.6606 5.44132 93.8538 6.14504C94.4219 6.20935 94.5683 6.30582 94.5862 6.14504C94.2863 4.54845 93.4276 3.11087 92.1639 2.09002C90.0739 0.428717 86.176 0.303672 84.2325 3.27973C84.2325 3.27973 82.5355 4.59806 82.4104 6.49517C82.2854 8.39227 83.5001 10.9468 84.3933 10.8432Z" fill="#263238"/>
<path d="M84.9435 10.7288C84.9435 10.7288 83.4465 8.88175 82.5962 9.42837C81.7459 9.97499 82.9535 12.7188 84.0253 13.0297C84.1585 13.0794 84.3005 13.1017 84.4426 13.0949C84.5847 13.0882 84.7239 13.0527 84.8518 12.9906C84.9798 12.9285 85.0938 12.841 85.1869 12.7335C85.2801 12.6259 85.3504 12.5006 85.3936 12.3651L84.9435 10.7288Z" fill="#DD6A57"/>
<path d="M82.9856 10.2072C82.9677 10.2072 82.9677 10.2287 82.9856 10.2322C83.7323 10.4752 84.161 11.1218 84.479 11.8006C84.432 11.7308 84.3703 11.6721 84.2983 11.6285C84.2263 11.5849 84.1456 11.5576 84.0619 11.5484C83.9783 11.5392 83.8936 11.5484 83.8138 11.5753C83.7341 11.6022 83.6611 11.6462 83.6001 11.7042C83.5967 11.7076 83.5945 11.712 83.5939 11.7168C83.5933 11.7215 83.5943 11.7264 83.5968 11.7305C83.5992 11.7346 83.603 11.7378 83.6075 11.7395C83.612 11.7412 83.6169 11.7413 83.6215 11.7399C83.7445 11.6945 83.8783 11.6869 84.0056 11.7181C84.1329 11.7493 84.248 11.8179 84.3361 11.915C84.4823 12.0858 84.6104 12.2714 84.7184 12.4687C84.7577 12.533 84.872 12.4902 84.8398 12.4151C84.7719 11.472 83.9681 10.2287 82.9856 10.2072Z" fill="#263238"/>
<path d="M92.1961 11.6828C92.0657 11.9507 91.8674 12.1799 91.6209 12.3473C91.4839 12.4357 91.3229 12.4794 91.16 12.4723C90.8027 12.4509 90.7348 12.1436 90.742 11.865C90.7484 11.7173 90.7724 11.571 90.8134 11.4291C91.2358 11.6579 91.72 11.7467 92.1961 11.6828Z" fill="white"/>
<path d="M93.4858 7.33833C93.3393 7.33833 93.2036 7.30618 93.0571 7.28831C92.9042 7.29172 92.7545 7.24393 92.6319 7.15255C92.5981 7.11656 92.5772 7.07029 92.5727 7.02109C92.5681 6.97189 92.5802 6.92259 92.6069 6.88103C92.6719 6.80803 92.755 6.75343 92.8479 6.72271C92.9407 6.69198 93.0399 6.6862 93.1357 6.70596C93.3365 6.71759 93.526 6.80281 93.668 6.94534C93.6987 6.97967 93.7187 7.02226 93.7255 7.06784C93.7323 7.11342 93.7256 7.16 93.7063 7.20181C93.6869 7.24362 93.6557 7.27883 93.6165 7.3031C93.5773 7.32736 93.5319 7.33961 93.4858 7.33833Z" fill="#263238"/>
<path d="M89.195 7.84923C89.3344 7.81626 89.4717 7.7745 89.6058 7.72419C89.7573 7.70085 89.8968 7.62798 90.0024 7.51697C90.0285 7.47521 90.0402 7.42603 90.0357 7.37699C90.0312 7.32794 90.0107 7.28173 89.9774 7.24544C89.9013 7.184 89.81 7.14426 89.7131 7.13042C89.6163 7.11659 89.5175 7.12917 89.4272 7.16684C89.2311 7.21243 89.059 7.32966 88.9449 7.49553C88.9208 7.53485 88.9088 7.58035 88.9104 7.62641C88.9119 7.67247 88.9269 7.71707 88.9535 7.7547C88.9801 7.79233 89.0172 7.82134 89.0601 7.83814C89.103 7.85494 89.1499 7.85879 89.195 7.84923Z" fill="#263238"/>
<path d="M90.1596 9.34619C90.1596 9.34619 90.1275 9.3712 90.131 9.38549C90.1918 9.80707 90.1918 10.3001 89.8238 10.4823C89.8238 10.4823 89.8238 10.5109 89.8238 10.5073C90.2882 10.3894 90.2847 9.73562 90.1596 9.34619Z" fill="#263238"/>
<path d="M89.7345 8.94605C89.0485 8.97106 89.1485 10.3394 89.7809 10.318C90.4133 10.2965 90.3061 8.92819 89.7345 8.94605Z" fill="#263238"/>
<path d="M89.4701 9.03894C89.3558 9.12469 89.2486 9.27117 89.1128 9.29618C88.977 9.32119 88.8127 9.189 88.6912 9.06038H88.6698C88.6698 9.32476 88.8056 9.58557 89.0878 9.607C89.37 9.62844 89.5165 9.37835 89.563 9.1104C89.563 9.07467 89.5165 9.00322 89.4701 9.03894Z" fill="#263238"/>
<path d="M92.7999 8.96034C92.7999 8.96034 92.8356 8.97821 92.8356 8.99607C92.8356 9.42122 92.9392 9.90711 93.3322 10.0214V10.0464C92.857 10.0107 92.7463 9.36763 92.7999 8.96034Z" fill="#263238"/>
<path d="M93.1535 8.49589C93.8324 8.39943 93.9717 9.7642 93.3429 9.85352C92.7141 9.94284 92.5819 8.57449 93.1535 8.49589Z" fill="#263238"/>
<path d="M93.4465 8.55305C93.5608 8.61736 93.6823 8.73526 93.8038 8.73169C93.9252 8.72812 94.0503 8.56735 94.1289 8.41372C94.1289 8.41372 94.1503 8.41372 94.1539 8.41372C94.1861 8.67453 94.1289 8.9532 93.8824 9.0318C93.6359 9.1104 93.4679 8.89246 93.3786 8.6388C93.3715 8.60665 93.4001 8.53162 93.4465 8.55305Z" fill="#263238"/>
<path d="M92.2461 10.9039C92.2461 10.9039 92.3854 11.5291 92.4104 11.8257C92.4104 11.8542 92.3426 11.8757 92.2425 11.89C91.9892 11.9588 91.7219 11.9565 91.4698 11.8834C91.2177 11.8103 90.9906 11.6692 90.8134 11.4755C90.792 11.4505 90.8134 11.4148 90.8563 11.4327C91.2585 11.6602 91.7234 11.7517 92.1818 11.6935C92.1818 11.6077 91.9067 10.6216 91.9531 10.6216C92.1864 10.6241 92.4183 10.6577 92.6427 10.7217C92.389 9.4105 91.9281 8.14934 91.6923 6.84173C91.6907 6.8368 91.69 6.8316 91.6904 6.82642C91.6908 6.82124 91.6921 6.81618 91.6945 6.81154C91.6968 6.80689 91.7 6.80275 91.7039 6.79935C91.7078 6.79595 91.7124 6.79335 91.7173 6.79171C91.7223 6.79007 91.7275 6.78941 91.7326 6.78978C91.7378 6.79015 91.7429 6.79153 91.7475 6.79385C91.7522 6.79618 91.7563 6.79939 91.7597 6.80331C91.7631 6.80724 91.7657 6.81179 91.7673 6.81672C92.3034 8.15727 92.7044 9.54799 92.9642 10.9682C92.9892 11.1183 92.3676 10.9432 92.2461 10.9039Z" fill="#263238"/>
</svg>
